<svg enable-background="new 0 0 416.03 86.998" viewBox="0 0 416.03 86.998" xmlns="http://www.w3.org/2000/svg"><path d="M14.794 53.16C18.594 66.465 33.246 70.95 39.7 72.41c-5.974-3.2-16.612-8.563-20.014-20.474S22.64 30.394 26.1 24.81c-4.81 4.3-15.107 15.054-11.306 28.35" fill="#F37024"/><path d="M6.895 55.132c2.053 7.19 9.997 11.253 14.6 12.83-3.984-2.43-9.148-8.365-10.704-13.807-1.548-5.42.032-11.99 1.89-16.943-3.17 3.742-7.83 10.758-5.785 17.92" fill="#F78F2F"/><path d="M9.045 64.806c-1.753-2.25-4.308-4.536-5.634-8.813-1.01-3.26-.15-7.038.18-10.21-1.487 2.94-4.493 6.91-3.327 11.005 1.17 4.085 5.95 6.187 8.782 8.018M91.445 33.9C87.64 20.6 72.995 16.11 66.533 14.65c5.974 3.203 16.615 8.568 20.02 20.48 3.402 11.9-2.956 21.54-6.42 27.122 4.812-4.3 15.11-15.056 11.312-28.353" fill="#F37024"/><path d="M99.34 31.928C97.29 24.74 89.34 20.675 84.742 19.1c3.983 2.428 9.147 8.363 10.7 13.802 1.55 5.42-.03 11.995-1.89 16.94 3.17-3.732 7.83-10.75 5.786-17.914" fill="#F78F2F"/><path d="M97.097 22.28c1.753 2.247 4.31 4.54 5.637 8.81 1.01 3.264.155 7.04-.18 10.21 1.485-2.94 4.497-6.91 3.325-11-1.17-4.09-5.947-6.184-8.783-8.02M61.556 73.21c14.175-3.562 18.956-17.308 20.518-23.366-3.42 5.61-9.135 15.588-21.835 18.777-12.692 3.195-22.968-2.773-28.917-6.02 4.585 4.512 16.052 14.175 30.233 10.61" fill="#F37024"/><path d="M63.65 80.617c7.667-1.927 11.996-9.38 13.675-13.693-2.59 3.732-8.915 8.578-14.716 10.04-5.777 1.45-12.782-.03-18.06-1.777 3.986 2.972 11.463 7.348 19.1 5.43" fill="#F78F2F"/><path d="M73.942 78.513c-2.4 1.645-4.846 4.045-9.398 5.288-3.476.947-7.505.146-10.885-.17 3.132 1.4 7.365 4.216 11.73 3.12 4.353-1.09 6.592-5.578 8.552-8.237M44.603 13.87c-14.178 3.566-18.96 17.31-20.52 23.364 3.42-5.597 9.134-15.582 21.83-18.777 12.698-3.188 22.97 2.78 28.914 6.024-4.58-4.51-16.046-14.174-30.224-10.61" fill="#F37024"/><path d="M42.503 6.465c-7.663 1.927-11.995 9.38-13.67 13.69 2.584-3.726 8.908-8.578 14.71-10.038 5.78-1.45 12.783.03 18.064 1.775-3.99-2.972-11.465-7.347-19.104-5.427" fill="#F78F2F"/><path d="M32.192 8.48c2.4-1.642 4.84-4.042 9.39-5.285 3.48-.946 7.506-.142 10.89.17C49.334 1.967 45.1-.85 40.74.248c-4.357 1.092-6.596 5.576-8.55 8.232M148.77 46.608c-11.336 0-17.713-8.538-17.713-17.744 0-9.203 6.593-17.54 17.768-17.54 4.632 0 7.52.97 10.192 2.557l-2.128 3.02c-2.125-1.383-4.742-2.252-8.174-2.252-8.723 0-13.192 6.75-13.192 14.113 0 7.466 4.305 14.473 13.353 14.473 3.924 0 6.76-1.228 8.884-2.916l1.965 2.863c-1.907 1.638-5.887 3.428-10.955 3.428" fill="#F37024"/><path d="M180.93 22.525c-1.144-2.863-1.636-4.295-2.236-5.882h-.108c-.6 1.688-1.2 3.275-2.236 5.882l-4.632 11.658h13.792l-4.58-11.658zm-13.9 23.47h-4.196l13.9-34.055h4.14l13.957 34.056h-4.634l-3.324-8.44h-16.516l-3.326 8.44zM201.1 45.996V11.94h4.25v30.68h14.28v3.376zM227.21 11.94h4.252v34.056h-4.252z" fill="#F37024"/><g fill="#7D7E80"><path d="M249.72 46.608c-5.56 0-8.992-2.3-10.304-3.476l2.183-2.863c.815.713 3.43 3.014 8.283 3.014 4.468 0 7.412-2.758 7.412-5.776 0-4.144-4.144-5.882-8.34-7.824-4.416-2.047-8.448-4.246-8.448-9.667 0-5.572 5.016-8.693 10.573-8.693 5.4 0 8.343 1.84 9.54 2.712l-2.07 2.966c-1.254-.922-3.707-2.353-7.523-2.353-3.596 0-6.324 2.046-6.324 5.163 0 3.377 2.944 4.96 6.543 6.546 4.793 2.145 10.353 4.45 10.353 11.094 0 5.372-4.85 9.154-11.88 9.154M278.12 15.314h-4.413v13.55h4.252c6.375 0 8.99-2.45 8.99-6.954.002-3.884-2.395-6.596-8.83-6.596m-.16 16.927h-4.252v13.756h-4.252V11.94h9.104c7.304 0 12.756 3.272 12.756 9.818 0 6.698-4.908 10.483-13.356 10.483"/></g><path fill="#7D7E80" d="M323.8 45.996v-16.26h-20.55v16.26H299V11.94h4.25v14.42h20.55V11.94h4.25v34.056zM338.52 45.996V11.94h18.64v3.374h-14.39v10.943h12.64v3.374h-12.64v12.99h14.77v3.376zM375.31 15.314h-5.12v11.71h5.448c5.396 0 7.848-2.145 7.848-5.93s-2.616-5.78-8.176-5.78m10.14 30.682l-7.304-9.664c-4.252-5.625-4.904-6.036-7.36-6.036h-.597v15.7h-4.256V11.94h9.868c7.576 0 12.045 3.324 12.045 9.05 0 5.675-4.413 8.59-10.192 8.898v.102c.708.46 1.69 1.484 3.816 4.246l8.993 11.76h-5.013zM397.01 11.94v34.056h19.02v-3.374h-14.77v-12.99h12.64v-3.375h-12.64V15.314h14.39V11.94z"/><g fill="#7D7E80"><path d="M138.11 75.67c-3.766 0-5.452-1.88-5.452-5v-7.745h2.267v7.54c0 2.33.962 3.438 3.244 3.438 2.164 0 3.125-1.277 3.125-3.23v-7.747h2.106V70.5c0 3.253-1.722 5.17-5.29 5.17"/><path d="M157.21 75.444l-5.814-7.84c-.622-.828-1.16-1.712-1.18-1.75h-.04c0 .038.08.81.08 1.526v8.065h-2.067V62.923h2.266l5.47 7.37c.72.976 1.302 1.935 1.342 1.994h.04c0-.077-.08-.884-.08-1.843v-7.52h2.066v12.52h-2.084z"/></g><path fill="#7D7E80" d="M164.24 62.923h2.267v12.52h-2.267zM177.37 75.444h-2.165l-5.152-12.52h2.446l3.085 8.008c.362.96.742 2.124.742 2.124h.04s.362-1.166.72-2.124l2.988-8.01h2.264l-4.97 12.522zM185.72 75.444v-12.52h7.32v1.765h-5.07v3.348h4.47v1.692h-4.47v3.95h5.21v1.764z"/><g fill="#7D7E80"><path d="M201.23 64.596h-1.623v3.834h1.744c1.723 0 2.506-.696 2.506-1.936s-.82-1.898-2.626-1.898m3.368 10.848l-2.545-3.553c-1.262-1.746-1.503-1.88-2.264-1.88h-.183v5.434h-2.264v-12.52h4.07c2.983 0 4.71 1.24 4.71 3.478 0 2.066-1.544 3.12-3.39 3.327v.036c.322.207.724.66 1.484 1.69l2.925 3.987h-2.544zM213.52 75.67c-2.106 0-3.448-.81-3.967-1.26l1.02-1.485c.3.226 1.283 1.014 2.947 1.014 1.48 0 2.384-.808 2.384-1.748 0-1.296-1.463-1.77-3.006-2.483-1.645-.77-2.987-1.634-2.987-3.665 0-2.106 1.884-3.35 4.13-3.35 2.083 0 3.227.68 3.728 1.037l-.983 1.503c-.46-.3-1.4-.807-2.666-.807-1.204 0-2.023.58-2.023 1.577 0 1.092 1.06 1.525 2.424 2.11 1.764.77 3.61 1.616 3.61 3.985 0 2.142-1.805 3.57-4.61 3.57"/></g><path fill="#7D7E80" d="M222.22 62.923h2.264v12.52h-2.264zM234.08 64.69v10.755h-2.29V64.69h-3.73v-1.766h9.72v1.766zM246.82 70.706v4.738h-2.27v-4.738l-4.45-7.783h2.52l3.15 5.81h.03l3.14-5.81h2.2zM265.93 64.427c-2.907 0-4.388 2.162-4.388 4.72s1.44 4.792 4.33 4.792c2.924 0 4.365-2.2 4.365-4.738 0-2.558-1.4-4.775-4.307-4.775m0 11.244c-4.31 0-6.775-3.063-6.775-6.468 0-3.42 2.406-6.506 6.717-6.506 4.33 0 6.754 3.05 6.754 6.45-.002 3.42-2.39 6.525-6.696 6.525"/><path fill="#7D7E80" d="M278.92 64.69v3.48h4.47v1.71h-4.47v5.565h-2.27v-12.52h7.36v1.765z"/><g fill="#7D7E80"><path d="M299.3 75.67c-4.388 0-6.695-3.12-6.695-6.505 0-3.405 2.387-6.47 6.735-6.47 1.722 0 2.867.36 3.89.98l-1.064 1.56c-.76-.47-1.645-.77-2.885-.77-2.807 0-4.288 2.143-4.288 4.626 0 2.558 1.422 4.794 4.348 4.794 1.444 0 2.406-.45 3.126-.996l.983 1.484c-.702.603-2.245 1.3-4.15 1.3"/><path d="M312.6 67.454c-.4-1.05-.54-1.503-.76-2.162h-.04c-.22.677-.363 1.126-.765 2.162l-1.38 3.572h4.33l-1.385-3.572zm-4.63 7.99h-2.264l5.09-12.52h2.183l5.19 12.52h-2.464l-1.042-2.687h-5.653l-1.04 2.687z"/></g><path fill="#7D7E80" d="M321.6 75.444v-12.52h2.26v10.792h5.09v1.728zM332.92 62.923h2.267v12.52h-2.267zM342.48 64.69v3.48h4.47v1.71h-4.47v5.565h-2.27v-12.52h7.36v1.765z"/><g fill="#7D7E80"><path d="M357.36 64.427c-2.907 0-4.388 2.162-4.388 4.72s1.44 4.792 4.33 4.792c2.92 0 4.365-2.2 4.365-4.738 0-2.558-1.4-4.775-4.307-4.775m0 11.244c-4.31 0-6.775-3.063-6.775-6.468 0-3.42 2.406-6.506 6.717-6.506 4.33 0 6.754 3.05 6.754 6.45 0 3.42-2.388 6.525-6.696 6.525"/><path d="M371.97 64.596h-1.623v3.834h1.744c1.726 0 2.506-.696 2.506-1.936s-.82-1.898-2.626-1.898m3.368 10.848l-2.545-3.553c-1.262-1.746-1.503-1.88-2.264-1.88h-.183v5.434h-2.264v-12.52h4.066c2.986 0 4.712 1.24 4.712 3.478 0 2.066-1.543 3.12-3.39 3.327v.036c.323.207.725.66 1.485 1.69l2.925 3.987h-2.544zM390.31 75.444l-5.81-7.84c-.622-.828-1.163-1.712-1.184-1.75h-.04c0 .038.08.81.08 1.526v8.065h-2.063V62.923h2.264l5.47 7.37c.724.976 1.305 1.935 1.345 1.994h.037c0-.077-.078-.884-.078-1.843v-7.52h2.063v12.52h-2.085z"/></g><path fill="#7D7E80" d="M397.34 62.923h2.267v12.52h-2.267zM410.1 67.454c-.402-1.05-.54-1.503-.76-2.162h-.04c-.22.677-.363 1.126-.762 2.162l-1.382 3.572h4.33l-1.386-3.572zm-4.63 7.99h-2.263l5.09-12.52h2.183l5.192 12.52h-2.465l-1.042-2.687h-5.653l-1.04 2.687z"/></svg>