<?xml version="1.0" encoding="utf-8"?>
<!-- Generator: Adobe Illustrator 13.0.0, SVG Export Plug-In . SVG Version: 6.00 Build 14948)  -->
<!DOCTYPE svg PUBLIC "-//W3C//DTD SVG 1.1//EN" "http://www.w3.org/Graphics/SVG/1.1/DTD/svg11.dtd">
<svg version="1.1" id="Layer_1" xmlns="http://www.w3.org/2000/svg" xmlns:xlink="http://www.w3.org/1999/xlink" x="0px" y="0px"
	 width="444px" height="144px" viewBox="0 0 444 144" enable-background="new 0 0 444 144" xml:space="preserve">
<g>
	<defs>
		<rect id="SVGID_1_" x="-44" y="-172.8" width="612" height="489.6"/>
	</defs>
	<clipPath id="SVGID_2_">
		<use xlink:href="#SVGID_1_"  overflow="visible"/>
	</clipPath>
	<path clip-path="url(#SVGID_2_)" fill="#F36F24" d="M145.258,100.123c-12.562,0-19.625-9.459-19.625-19.657
		s7.307-19.433,19.686-19.433c5.132,0,8.333,1.076,11.293,2.833l-2.356,3.344c-2.354-1.53-5.253-2.494-9.058-2.494
		c-9.663,0-14.615,7.479-14.615,15.637c0,8.271,4.772,16.032,14.795,16.032c4.349,0,7.488-1.358,9.843-3.23l2.174,3.175
		C155.283,98.141,150.875,100.123,145.258,100.123"/>
	<path clip-path="url(#SVGID_2_)" fill="#F36F24" d="M165.488,99.444h-4.648l15.398-37.731h4.588l15.46,37.731h-5.132l-3.684-9.348
		h-18.299L165.488,99.444 M180.888,73.441c-1.268-3.174-1.812-4.76-2.477-6.516h-0.119c-0.665,1.87-1.33,3.626-2.477,6.516
		l-5.132,12.915h15.278L180.888,73.441z"/>
	<polyline clip-path="url(#SVGID_2_)" fill="#F36F24" points="203.233,99.444 203.233,61.713 207.943,61.713 207.943,95.703 
		223.765,95.703 223.765,99.444 203.233,99.444 	"/>
	<rect x="232.16" y="61.713" clip-path="url(#SVGID_2_)" fill="#F36F24" width="4.71" height="37.731"/>
	<path clip-path="url(#SVGID_2_)" fill="#7C7E7F" d="M257.101,100.123c-6.161,0-9.964-2.548-11.414-3.853l2.416-3.172
		c0.906,0.792,3.805,3.342,9.178,3.342c4.956,0,8.214-3.058,8.214-6.401c0-4.589-4.59-6.515-9.241-8.667
		c-4.891-2.266-9.358-4.704-9.358-10.708c0-6.174,5.556-9.63,11.715-9.63c5.979,0,9.239,2.04,10.568,3.002l-2.295,3.286
		c-1.389-1.02-4.107-2.606-8.333-2.606c-3.986,0-7.006,2.266-7.006,5.722c0,3.74,3.261,5.496,7.247,7.252
		c5.312,2.379,11.472,4.929,11.472,12.293C270.264,95.933,264.89,100.123,257.101,100.123"/>
	<path clip-path="url(#SVGID_2_)" fill="#7C7E7F" d="M288.384,84.206h-4.712v15.238h-4.709V61.711h10.084
		c8.092,0,14.132,3.628,14.132,10.88C303.179,80.012,297.742,84.206,288.384,84.206 M288.562,65.452h-4.891v15.012h4.712
		c7.065,0,9.964-2.718,9.964-7.704C298.348,68.456,295.688,65.452,288.562,65.452"/>
	<polyline clip-path="url(#SVGID_2_)" fill="#7C7E7F" points="339.172,99.444 339.172,81.43 316.403,81.43 316.403,99.444 
		311.692,99.444 311.692,61.713 316.403,61.713 316.403,77.689 339.172,77.689 339.172,61.713 343.881,61.713 343.881,99.444 
		339.172,99.444 	"/>
	<polyline clip-path="url(#SVGID_2_)" fill="#7C7E7F" points="355.477,99.444 355.477,61.713 376.13,61.713 376.13,65.452 
		360.187,65.452 360.187,77.574 374.196,77.574 374.196,81.314 360.187,81.314 360.187,95.703 376.55,95.703 376.55,99.444 
		355.477,99.444 	"/>
	<path clip-path="url(#SVGID_2_)" fill="#7C7E7F" d="M407.471,99.444l-8.092-10.706c-4.711-6.232-5.436-6.688-8.151-6.688h-0.665
		v17.394h-4.711V61.711h10.93c8.395,0,13.347,3.684,13.347,10.03c0,6.289-4.891,9.516-11.293,9.857v0.113
		c0.785,0.51,1.873,1.645,4.229,4.702l9.962,13.03H407.471 M396.239,65.452h-5.677v12.972h6.038c5.978,0,8.696-2.376,8.696-6.568
		C405.297,67.662,402.397,65.452,396.239,65.452"/>
	<polyline clip-path="url(#SVGID_2_)" fill="#7C7E7F" points="420.275,99.444 420.275,61.713 440.925,61.713 440.925,65.452 
		424.984,65.452 424.984,77.574 438.994,77.574 438.994,81.314 424.984,81.314 424.984,95.703 441.349,95.703 441.349,99.444 
		420.275,99.444 	"/>
	<path clip-path="url(#SVGID_2_)" fill="#F36F24" d="M18.509,62.427c4.209,14.738,20.444,19.707,27.593,21.323
		c-6.618-3.546-18.406-9.485-22.173-22.685c-3.769-13.193,3.271-23.863,7.107-30.047C25.707,35.778,14.3,47.697,18.509,62.427"/>
	<path clip-path="url(#SVGID_2_)" fill-rule="evenodd" clip-rule="evenodd" fill="#F78F2F" d="M9.759,64.612
		c2.276,7.966,11.077,12.464,16.172,14.215c-4.413-2.696-10.134-9.27-11.854-15.296c-1.719-6.008,0.034-13.286,2.093-18.771
		C12.658,48.904,7.493,56.678,9.759,64.612"/>
	<path clip-path="url(#SVGID_2_)" fill-rule="evenodd" clip-rule="evenodd" fill="#F36F24" d="M12.139,75.328
		c-1.94-2.494-4.772-5.026-6.243-9.764c-1.118-3.611-0.168-7.798,0.203-11.313c-1.651,3.259-4.981,7.658-3.688,12.194
		C3.704,70.97,9.002,73.302,12.139,75.328"/>
	<path clip-path="url(#SVGID_2_)" fill="#F36F24" d="M103.431,41.087c-4.212-14.734-20.44-19.707-27.598-21.329
		c6.618,3.552,18.408,9.495,22.178,22.692c3.769,13.188-3.276,23.866-7.115,30.047C96.229,67.735,107.638,55.821,103.431,41.087"/>
	<path clip-path="url(#SVGID_2_)" fill-rule="evenodd" clip-rule="evenodd" fill="#F78F2F" d="M112.177,38.904
		c-2.273-7.961-11.077-12.468-16.168-14.213c4.413,2.689,10.133,9.267,11.854,15.293c1.717,6.006-0.032,13.287-2.095,18.768
		C109.277,54.612,114.443,46.843,112.177,38.904"/>
	<path clip-path="url(#SVGID_2_)" fill-rule="evenodd" clip-rule="evenodd" fill="#F36F24" d="M109.693,28.213
		c1.94,2.492,4.775,5.029,6.244,9.762c1.119,3.618,0.172,7.798-0.2,11.313c1.647-3.261,4.982-7.659,3.684-12.189
		C118.131,32.568,112.832,30.246,109.693,28.213"/>
	<path clip-path="url(#SVGID_2_)" fill="#F36F24" d="M70.318,84.64c15.703-3.947,21-19.176,22.729-25.888
		c-3.79,6.213-10.117,17.271-24.189,20.803c-14.062,3.538-25.444-3.073-32.037-6.671C41.901,77.884,54.605,88.589,70.318,84.64"/>
	<path clip-path="url(#SVGID_2_)" fill-rule="evenodd" clip-rule="evenodd" fill="#F78F2F" d="M72.639,92.847
		c8.492-2.133,13.289-10.392,15.149-15.169c-2.87,4.135-9.875,9.502-16.301,11.123c-6.401,1.606-14.163-0.035-20.011-1.972
		C55.892,90.122,64.176,94.971,72.639,92.847"/>
	<path clip-path="url(#SVGID_2_)" fill-rule="evenodd" clip-rule="evenodd" fill="#F36F24" d="M84.039,90.515
		c-2.659,1.822-5.365,4.481-10.411,5.856c-3.85,1.051-8.316,0.163-12.06-0.186c3.473,1.546,8.162,4.67,12.998,3.455
		C79.388,98.434,81.868,93.463,84.039,90.515"/>
	<path clip-path="url(#SVGID_2_)" fill="#F36F24" d="M51.535,18.899C35.827,22.85,30.531,38.075,28.801,44.783
		c3.788-6.202,10.12-17.266,24.186-20.801c14.067-3.536,25.447,3.077,32.035,6.67C79.945,25.656,67.243,14.95,51.535,18.899"/>
	<path clip-path="url(#SVGID_2_)" fill-rule="evenodd" clip-rule="evenodd" fill="#F78F2F" d="M49.209,10.693
		c-8.488,2.135-13.291,10.389-15.147,15.167c2.866-4.131,9.87-9.505,16.299-11.122c6.4-1.608,14.161,0.034,20.013,1.967
		C65.954,13.411,57.672,8.566,49.209,10.693"/>
	<path clip-path="url(#SVGID_2_)" fill-rule="evenodd" clip-rule="evenodd" fill="#F36F24" d="M37.785,12.925
		c2.659-1.819,5.362-4.478,10.404-5.853c3.854-1.05,8.314-0.16,12.065,0.187c-3.475-1.547-8.167-4.671-12.995-3.454
		C42.43,5.015,39.949,9.982,37.785,12.925"/>
	<path clip-path="url(#SVGID_2_)" fill="#7C7E7F" d="M133.446,141.806c-4.175,0-6.038-2.085-6.038-5.542v-8.582h2.507v8.351
		c0,2.586,1.066,3.813,3.597,3.813c2.4,0,3.466-1.416,3.466-3.582v-8.582h2.331v8.393
		C139.309,139.681,137.4,141.806,133.446,141.806"/>
	<path clip-path="url(#SVGID_2_)" fill="#7C7E7F" d="M154.604,141.554l-6.439-8.686c-0.688-0.916-1.287-1.896-1.311-1.938h-0.044
		c0,0.041,0.09,0.896,0.09,1.687v8.937h-2.288v-13.872h2.509l6.062,8.165c0.799,1.083,1.443,2.144,1.487,2.207h0.044
		c0-0.082-0.088-0.979-0.088-2.04v-8.332h2.286v13.872H154.604"/>
	<rect x="162.396" y="127.682" clip-path="url(#SVGID_2_)" fill="#7C7E7F" width="2.509" height="13.872"/>
	<path clip-path="url(#SVGID_2_)" fill="#7C7E7F" d="M176.937,141.554h-2.398l-5.707-13.872h2.711l3.417,8.874
		c0.403,1.062,0.823,2.353,0.823,2.353h0.046c0,0,0.398-1.29,0.797-2.353l3.31-8.874h2.507L176.937,141.554"/>
	<polyline clip-path="url(#SVGID_2_)" fill="#7C7E7F" points="186.195,141.554 186.195,127.682 194.299,127.682 194.299,129.639 
		188.683,129.639 188.683,133.348 193.633,133.348 193.633,135.222 188.683,135.222 188.683,139.597 194.456,139.597 
		194.456,141.554 186.195,141.554 	"/>
	<path clip-path="url(#SVGID_2_)" fill="#7C7E7F" d="M207.107,141.554l-2.817-3.936c-1.401-1.938-1.666-2.084-2.509-2.084h-0.202
		v6.02h-2.509v-13.872h4.51c3.308,0,5.217,1.375,5.217,3.854c0,2.289-1.708,3.457-3.754,3.686v0.042
		c0.355,0.229,0.801,0.729,1.643,1.873l3.245,4.417H207.107 M203.379,129.535h-1.8v4.25h1.935c1.909,0,2.774-0.771,2.774-2.146
		C206.288,130.264,205.376,129.535,203.379,129.535"/>
	<path clip-path="url(#SVGID_2_)" fill="#7C7E7F" d="M216.987,141.806c-2.333,0-3.82-0.897-4.395-1.397l1.132-1.646
		c0.33,0.25,1.419,1.125,3.262,1.125c1.642,0,2.644-0.896,2.644-1.938c0-1.437-1.62-1.957-3.33-2.749
		c-1.824-0.854-3.312-1.812-3.312-4.062c0-2.334,2.087-3.709,4.574-3.709c2.311,0,3.575,0.751,4.133,1.146l-1.09,1.668
		c-0.51-0.335-1.554-0.896-2.951-0.896c-1.336,0-2.244,0.645-2.244,1.749c0,1.209,1.178,1.688,2.684,2.335
		c1.957,0.853,3.999,1.79,3.999,4.414C222.094,140.221,220.097,141.806,216.987,141.806"/>
	<rect x="226.623" y="127.682" clip-path="url(#SVGID_2_)" fill="#7C7E7F" width="2.509" height="13.872"/>
	<polyline clip-path="url(#SVGID_2_)" fill="#7C7E7F" points="239.768,129.639 239.768,141.554 237.236,141.554 237.236,129.639 
		233.105,129.639 233.105,127.682 243.875,127.682 243.875,129.639 239.768,129.639 	"/>
	<polyline clip-path="url(#SVGID_2_)" fill="#7C7E7F" points="253.881,136.305 253.881,141.554 251.37,141.554 251.37,136.305 
		246.441,127.682 249.24,127.682 252.723,134.118 252.749,134.118 256.233,127.682 258.675,127.682 253.881,136.305 	"/>
	<path clip-path="url(#SVGID_2_)" fill="#7C7E7F" d="M275.06,141.806c-4.775,0-7.506-3.398-7.506-7.167
		c0-3.791,2.664-7.208,7.439-7.208c4.796,0,7.481,3.376,7.481,7.146C282.475,138.366,279.831,141.806,275.06,141.806
		 M275.06,129.348c-3.224,0-4.864,2.396-4.864,5.229c0,2.832,1.6,5.311,4.798,5.311c3.24,0,4.838-2.438,4.838-5.249
		C279.831,131.806,278.277,129.348,275.06,129.348"/>
	<polyline clip-path="url(#SVGID_2_)" fill="#7C7E7F" points="289.446,129.639 289.446,133.492 294.396,133.492 294.396,135.388 
		289.446,135.388 289.446,141.554 286.936,141.554 286.936,127.682 295.085,127.682 295.085,129.639 289.446,129.639 	"/>
	<path clip-path="url(#SVGID_2_)" fill="#7C7E7F" d="M312.022,141.806c-4.863,0-7.415-3.46-7.415-7.21
		c0-3.769,2.642-7.165,7.459-7.165c1.909,0,3.176,0.397,4.309,1.084l-1.177,1.729c-0.844-0.522-1.821-0.854-3.198-0.854
		c-3.109,0-4.751,2.373-4.751,5.122c0,2.834,1.576,5.312,4.817,5.312c1.6,0,2.666-0.5,3.465-1.104l1.088,1.646
		C315.843,141.032,314.132,141.806,312.022,141.806"/>
	<path clip-path="url(#SVGID_2_)" fill="#7C7E7F" d="M321.635,141.554h-2.508l5.639-13.872h2.421l5.751,13.872h-2.731l-1.156-2.979
		h-6.26L321.635,141.554 M326.765,132.702c-0.445-1.168-0.6-1.666-0.843-2.396h-0.046c-0.243,0.748-0.399,1.248-0.845,2.396
		l-1.53,3.956h4.796L326.765,132.702z"/>
	<polyline clip-path="url(#SVGID_2_)" fill="#7C7E7F" points="336.732,141.554 336.732,127.682 339.241,127.682 339.241,139.638 
		344.88,139.638 344.88,141.554 336.732,141.554 	"/>
	<rect x="349.274" y="127.682" clip-path="url(#SVGID_2_)" fill="#7C7E7F" width="2.51" height="13.872"/>
	<polyline clip-path="url(#SVGID_2_)" fill="#7C7E7F" points="359.864,129.639 359.864,133.492 364.814,133.492 364.814,135.388 
		359.864,135.388 359.864,141.554 357.354,141.554 357.354,127.682 365.505,127.682 365.505,129.639 359.864,129.639 	"/>
	<path clip-path="url(#SVGID_2_)" fill="#7C7E7F" d="M376.357,141.806c-4.775,0-7.506-3.398-7.506-7.167
		c0-3.791,2.664-7.208,7.438-7.208c4.798,0,7.483,3.376,7.483,7.146C383.772,138.366,381.129,141.806,376.357,141.806
		 M376.357,129.348c-3.222,0-4.864,2.396-4.864,5.229c0,2.832,1.601,5.311,4.796,5.311c3.242,0,4.84-2.438,4.84-5.249
		C381.129,131.806,379.575,129.348,376.357,129.348"/>
	<path clip-path="url(#SVGID_2_)" fill="#7C7E7F" d="M396.27,141.554l-2.82-3.936c-1.397-1.938-1.664-2.084-2.508-2.084h-0.2v6.02
		h-2.51v-13.872h4.507c3.311,0,5.223,1.375,5.223,3.854c0,2.289-1.712,3.457-3.757,3.686v0.042c0.356,0.229,0.801,0.729,1.644,1.873
		l3.244,4.417H396.27 M392.54,129.535h-1.799v4.25h1.931c1.911,0,2.776-0.771,2.776-2.146
		C395.448,130.264,394.539,129.535,392.54,129.535"/>
	<path clip-path="url(#SVGID_2_)" fill="#7C7E7F" d="M412.854,141.554l-6.438-8.686c-0.688-0.916-1.289-1.896-1.31-1.938h-0.046
		c0,0.041,0.089,0.896,0.089,1.687v8.937h-2.287v-13.872h2.51l6.061,8.165c0.801,1.083,1.444,2.144,1.489,2.207h0.044
		c0-0.082-0.089-0.979-0.089-2.04v-8.332h2.287v13.872H412.854"/>
	<rect x="420.646" y="127.682" clip-path="url(#SVGID_2_)" fill="#7C7E7F" width="2.51" height="13.872"/>
	<path clip-path="url(#SVGID_2_)" fill="#7C7E7F" d="M429.659,141.554h-2.509l5.64-13.872h2.421l5.75,13.872h-2.73l-1.156-2.979
		h-6.259L429.659,141.554 M434.79,132.702c-0.445-1.168-0.603-1.666-0.846-2.396H433.9c-0.243,0.748-0.399,1.248-0.845,2.396
		l-1.53,3.956h4.796L434.79,132.702z"/>
</g>
</svg>
