<?xml version="1.0" encoding="UTF-8" standalone="no"?>
<!DOCTYPE svg PUBLIC "-//W3C//DTD SVG 1.1//EN" "http://www.w3.org/Graphics/SVG/1.1/DTD/svg11.dtd">
<svg xmlns:dc="http://purl.org/dc/elements/1.1/" xmlns:xl="http://www.w3.org/1999/xlink" version="1.1" xmlns="http://www.w3.org/2000/svg" viewBox="0 0 144 144" width="144" height="144">
  <defs/>
  <metadata> Produced by OmniGraffle 7.8.1 
    <dc:date>2018-08-02 18:20:21 +0000</dc:date>
  </metadata>
  <g id="Canvas_1" fill-opacity="1" stroke-dasharray="none" stroke="none" stroke-opacity="1" fill="none">
    <title>Canvas 1</title>
    <g id="Canvas_1: Layer 1">
      <title>Layer 1</title>
      <g id="Graphic_126"/>
      <g id="Graphic_125">
        <path d="M 131.6027 48.502906 C 123.35688 27.08786 105.47755 11.123312 83.13014 5.763505 C 61.533444 .5830632 38.648658 7.087586 22.196286 21.709915 C 5.7892 36.292944 -2.0500546 58.74186 .4597144 80.38464 C 2.931243 101.6969 15.935952 120.52626 34.34059 131.23882 C 55.97854 143.83372 83.41191 142.52979 104.435 129.37967 C 107.18025 127.6636 104.65639 123.3034 101.89604 125.03056 C 79.13202 139.26795 49.886264 138.0527 28.73336 121.3979 C 10.073116 106.70403 1.646169 82.17124 6.311481 59.03207 C 10.926478 36.14683 28.747448 17.826347 50.931833 11.385307 C 75.1349 4.35881 101.15942 13.501418 116.98988 32.698578 C 121.17518 37.77422 124.39239 43.720494 126.7492 49.8421 C 127.90446 52.840934 132.77103 51.53902 131.6027 48.502906 Z" fill="#6e6e73"/>
      </g>
      <g id="Group_119">
        <g id="Group_120">
          <g id="Line_122"/>
          <g id="Graphic_121">
            <path d="M 97.16935 92.4898 C 102.20096 102.22996 107.23257 111.97113 112.26419 121.71229 C 114.2245 125.5082 119.26518 124.01482 120.54119 120.62905 C 128.25667 100.16121 135.97215 79.69237 143.68662 59.22353 C 145.7536 53.74179 136.99558 51.394924 134.95375 56.81217 C 127.23827 77.28101 119.5228 97.74884 111.80832 118.21769 C 114.56665 117.85694 117.32498 117.49519 120.08533 117.13444 C 115.05371 107.39428 110.0221 97.65312 104.99049 87.91195 C 102.30662 82.71639 94.49051 87.30432 97.16935 92.4898 Z" fill="#f59330"/>
          </g>
        </g>
      </g>
      <g id="Group_127">
        <title>Text</title>
        <g id="Group_128">
          <g id="Graphic_142"/>
          <g id="Graphic_141">
            <path d="M 34.971 33.34 C 33.091 33.34 31.636 34.047 30.604 35.459 C 29.573 36.872 29.057 38.84 29.057 41.365 C 29.057 46.618 31.028 49.244 34.971 49.244 C 36.625 49.244 38.629 48.83 40.981 48.003 L 40.981 52.192 C 39.047 52.998 36.888 53.4 34.503 53.4 C 31.076 53.4 28.455 52.361 26.64 50.282 C 24.825 48.204 23.917 45.22 23.917 41.331 C 23.917 38.882 24.363 36.736 25.254 34.894 C 26.145 33.052 27.426 31.639 29.097 30.656 C 30.767 29.674 32.725 29.182 34.971 29.182 C 37.259 29.182 39.558 29.735 41.867 30.842 L 40.256 34.903 C 39.375 34.484 38.489 34.119 37.597 33.807 C 36.705 33.495 35.831 33.34 34.971 33.34 Z" fill="#6e6e73"/>
          </g>
          <g id="Graphic_140">
            <path d="M 66.164 41.268 C 66.164 45.167 65.197 48.164 63.264 50.259 C 61.331 52.354 58.559 53.401 54.95 53.401 C 51.341 53.401 48.569 52.354 46.636 50.259 C 44.703 48.164 43.736 45.156 43.736 41.236 C 43.736 37.316 44.705 34.321 46.645 32.253 C 48.583 30.185 51.363 29.151 54.983 29.151 C 58.603 29.151 61.372 30.193 63.289 32.277 C 65.206 34.361 66.164 37.358 66.164 41.268 Z M 48.971 41.268 C 48.971 43.9 49.471 45.882 50.47 47.214 C 51.469 48.546 52.962 49.212 54.949 49.212 C 58.934 49.212 60.927 46.564 60.927 41.268 C 60.927 35.961 58.945 33.308 54.981 33.308 C 52.994 33.308 51.495 33.976 50.485 35.314 C 49.476 36.651 48.971 38.636 48.971 41.268 Z" fill="#6e6e73"/>
          </g>
          <g id="Graphic_139">
            <path d="M 75.414 44.04 L 75.414 53.08 L 70.419 53.08 L 70.419 29.522 L 77.283 29.522 C 80.484 29.522 82.853 30.105 84.39 31.27 C 85.925 32.436 86.693 34.206 86.693 36.58 C 86.693 37.966 86.312 39.198 85.55 40.278 C 84.786 41.357 83.706 42.203 82.31 42.816 C 85.855 48.112 88.165 51.533 89.24 53.08 L 83.697 53.08 L 78.074 44.04 Z M 75.414 39.979 L 77.025 39.979 C 78.605 39.979 79.769 39.716 80.523 39.189 C 81.273 38.663 81.65 37.835 81.65 36.708 C 81.65 35.591 81.265 34.796 80.498 34.323 C 79.731 33.85 78.541 33.614 76.93 33.614 L 75.414 33.614 Z" fill="#6e6e73"/>
          </g>
          <g id="Graphic_138">
            <path d="M 105.657 53.079 L 92.09 53.079 L 92.09 29.522 L 105.657 29.522 L 105.657 33.615 L 97.085 33.615 L 97.085 38.787 L 105.061 38.787 L 105.061 42.88 L 97.085 42.88 L 97.085 48.955 L 105.657 48.955 L 105.657 53.079 Z" fill="#6e6e73"/>
          </g>
          <g id="Graphic_137">
            <path d="M 34.053 81.08 L 29.058 81.08 L 29.058 61.68 L 22.661 61.68 L 22.661 57.523 L 40.45 57.523 L 40.45 61.68 L 34.053 61.68 L 34.053 81.08 Z" fill="#f59330"/>
          </g>
          <g id="Graphic_136">
            <path d="M 48.615 72.04 L 48.615 81.08 L 43.62 81.08 L 43.62 57.522 L 50.484 57.522 C 53.685 57.522 56.054 58.105 57.59 59.27 C 59.126 60.436 59.894 62.206 59.894 64.58 C 59.894 65.966 59.513 67.198 58.75 68.278 C 57.987 69.357 56.908 70.203 55.511 70.816 C 59.056 76.112 61.365 79.533 62.44 81.08 L 56.897 81.08 L 51.273 72.04 L 48.615 72.04 Z M 48.615 67.98 L 50.226 67.98 C 51.805 67.98 52.971 67.717 53.723 67.19 C 54.475 66.663 54.851 65.836 54.851 64.709 C 54.851 63.592 54.467 62.797 53.699 62.324 C 52.93 61.851 51.741 61.615 50.13 61.615 L 48.615 61.615 L 48.615 67.98 Z" fill="#f59330"/>
          </g>
          <g id="Graphic_135">
            <path d="M 83.557 57.522 L 83.557 72.765 C 83.557 74.505 83.167 76.031 82.389 77.341 C 81.61 78.652 80.485 79.656 79.013 80.355 C 77.541 81.054 75.801 81.402 73.792 81.402 C 70.763 81.402 68.41 80.626 66.734 79.074 C 65.058 77.521 64.22 75.397 64.22 72.701 L 64.22 57.522 L 69.2 57.522 L 69.2 71.943 C 69.2 73.759 69.565 75.091 70.296 75.939 C 71.026 76.789 72.235 77.212 73.921 77.212 C 75.554 77.212 76.738 76.785 77.474 75.931 C 78.21 75.077 78.578 73.738 78.578 71.911 L 78.578 57.522 Z" fill="#f59330"/>
          </g>
          <g id="Graphic_134">
            <path d="M 102.703 74.538 C 102.703 76.665 101.937 78.341 100.406 79.565 C 98.876 80.79 96.746 81.402 94.017 81.402 C 91.503 81.402 89.28 80.929 87.346 79.984 L 87.346 75.343 C 88.936 76.052 90.282 76.552 91.382 76.841 C 92.484 77.132 93.49 77.277 94.403 77.277 C 95.499 77.277 96.34 77.068 96.924 76.648 C 97.51 76.23 97.803 75.607 97.803 74.779 C 97.803 74.318 97.674 73.907 97.416 73.547 C 97.158 73.188 96.779 72.841 96.279 72.508 C 95.78 72.175 94.761 71.643 93.226 70.913 C 91.786 70.236 90.706 69.586 89.987 68.963 C 89.268 68.34 88.692 67.615 88.263 66.788 C 87.832 65.961 87.618 64.994 87.618 63.888 C 87.618 61.804 88.324 60.166 89.736 58.973 C 91.149 57.781 93.101 57.184 95.593 57.184 C 96.818 57.184 97.986 57.329 99.098 57.619 C 100.209 57.909 101.372 58.317 102.586 58.844 L 100.975 62.727 C 99.718 62.211 98.679 61.852 97.857 61.647 C 97.036 61.443 96.227 61.341 95.432 61.341 C 94.487 61.341 93.761 61.561 93.256 62.002 C 92.751 62.443 92.499 63.017 92.499 63.726 C 92.499 64.166 92.601 64.551 92.805 64.878 C 93.009 65.206 93.334 65.523 93.781 65.829 C 94.226 66.135 95.282 66.685 96.947 67.48 C 99.149 68.533 100.658 69.588 101.475 70.646 C 102.294 71.705 102.703 73.002 102.703 74.538 Z" fill="#f59330"/>
          </g>
          <g id="Graphic_133">
            <path d="M 116.378 81.08 L 111.383 81.08 L 111.383 61.68 L 104.986 61.68 L 104.986 57.523 L 122.775 57.523 L 122.775 61.68 L 116.379 61.68 L 116.379 81.08 Z" fill="#f59330"/>
          </g>
          <g id="Graphic_132">
            <path d="M 38.871 102.538 C 38.871 104.665 38.106 106.341 36.575 107.565 C 35.045 108.79 32.915 109.402 30.186 109.402 C 27.672 109.402 25.449 108.929 23.515 107.984 L 23.515 103.343 C 25.105 104.052 26.45 104.552 27.551 104.841 C 28.652 105.132 29.659 105.277 30.572 105.277 C 31.668 105.277 32.508 105.068 33.093 104.648 C 33.678 104.23 33.971 103.607 33.971 102.779 C 33.971 102.318 33.842 101.907 33.584 101.547 C 33.326 101.188 32.948 100.841 32.448 100.508 C 31.949 100.175 30.931 99.644 29.395 98.912 C 27.956 98.236 26.876 97.586 26.156 96.963 C 25.436 96.34 24.862 95.615 24.432 94.787 C 24.002 93.961 23.787 92.994 23.787 91.887 C 23.787 89.804 24.493 88.165 25.906 86.973 C 27.319 85.781 29.271 85.184 31.763 85.184 C 32.988 85.184 34.156 85.33 35.268 85.62 C 36.379 85.91 37.542 86.318 38.756 86.845 L 37.145 90.728 C 35.888 90.212 34.849 89.853 34.027 89.649 C 33.206 89.445 32.397 89.343 31.602 89.343 C 30.657 89.343 29.932 89.563 29.427 90.003 C 28.922 90.443 28.67 91.019 28.67 91.728 C 28.67 92.168 28.772 92.552 28.976 92.879 C 29.18 93.207 29.505 93.524 29.951 93.83 C 30.396 94.136 31.452 94.686 33.117 95.481 C 35.319 96.534 36.828 97.589 37.645 98.647 C 38.462 99.705 38.871 101.002 38.871 102.538 Z" fill="#6e6e73"/>
          </g>
          <g id="Graphic_131">
            <path d="M 56.282 109.08 L 42.715 109.08 L 42.715 85.522 L 56.282 85.522 L 56.282 89.615 L 47.71 89.615 L 47.71 94.787 L 55.686 94.787 L 55.686 98.881 L 47.71 98.881 L 47.71 104.955 L 56.282 104.955 Z" fill="#6e6e73"/>
          </g>
          <g id="Graphic_130">
            <path d="M 76.002 109.08 L 74.293 103.473 L 65.705 103.473 L 63.997 109.08 L 58.615 109.08 L 66.929 85.426 L 73.037 85.426 L 81.383 109.08 Z M 73.102 99.283 C 71.522 94.202 70.633 91.329 70.435 90.662 C 70.236 89.997 70.094 89.471 70.008 89.084 C 69.654 90.459 68.638 93.858 66.963 99.283 Z" fill="#6e6e73"/>
          </g>
          <g id="Graphic_129">
            <path d="M 84.219 109.08 L 84.219 85.522 L 89.214 85.522 L 89.214 104.955 L 98.77 104.955 L 98.77 109.08 L 84.219 109.08 Z" fill="#6e6e73"/>
          </g>
        </g>
      </g>
    </g>
  </g>
</svg>
