<?xml version="1.0" encoding="utf-8"?>
<!-- Generator: Adobe Illustrator 13.0.0, SVG Export Plug-In . SVG Version: 6.00 Build 14948)  -->
<!DOCTYPE svg PUBLIC "-//W3C//DTD SVG 1.1//EN" "http://www.w3.org/Graphics/SVG/1.1/DTD/svg11.dtd">
<svg version="1.1" id="Layer_1" xmlns="http://www.w3.org/2000/svg" xmlns:xlink="http://www.w3.org/1999/xlink" x="0px" y="0px"
	 width="284px" height="68px" viewBox="0 0 284 68" enable-background="new 0 0 284 68" xml:space="preserve">
<g>
	<defs>
		<rect id="SVGID_1_" x="1" y="0.046" width="70" height="67.907"/>
	</defs>
	<clipPath id="SVGID_2_">
		<use xlink:href="#SVGID_1_"  overflow="visible"/>
	</clipPath>
	<path clip-path="url(#SVGID_2_)" fill="#F68D2E" d="M48.045,64.433c-0.013-0.111-0.405-5.955-3.097-12.733
		c-2.707-6.784-6.51-10.688-6.618-10.801c-0.627-0.642-1.458-0.966-2.277-0.977V39.92h-0.018v0.002
		c-0.819,0.011-1.653,0.335-2.276,0.977c-0.106,0.113-3.91,4.017-6.618,10.801c-2.695,6.778-3.085,12.622-3.099,12.733l-0.018,0.742
		V65.2l0.01-0.006c0.048,3.697,5.968,3.851,6.088-0.585l0.013-0.2l0.054-0.87c0-0.003,0.068-1.106,0.375-2.853
		c0.306-1.754,0.847-4.096,1.758-6.384c0.911-2.284,2.019-4.104,2.893-5.33c0.312-0.448,1.341-0.448,1.656,0
		c0.871,1.227,1.978,3.046,2.893,5.33c0.911,2.288,1.454,4.63,1.758,6.384c0.306,1.746,0.371,2.85,0.371,2.853l0.067,1.07
		c0.128,4.436,6.045,4.282,6.092,0.585L48.06,65.2v-0.025L48.045,64.433"/>
	<path clip-path="url(#SVGID_2_)" fill="#F68D2E" d="M68.431,31.61c-0.111-0.022-5.705-1.449-12.894-0.943
		c-7.191,0.516-12.025,2.983-12.167,3.052c-0.792,0.406-1.354,1.109-1.615,1.892v-0.002c0,0.002,0,0.01-0.003,0.017
		c0,0-0.004,0.004-0.005,0.011h0.004c-0.245,0.788-0.201,1.69,0.21,2.492c0.076,0.139,2.554,5.017,8.078,9.728
		c5.518,4.691,10.872,6.876,10.974,6.927l0.692,0.242h0.009h0.001l0.014,0.006l-0.004-0.006c3.481,1.098,5.453-4.573,1.336-6.062
		l-0.184-0.071l-0.8-0.324c-0.001,0-1.014-0.405-2.561-1.242c-1.55-0.833-3.576-2.083-5.436-3.671
		c-1.864-1.584-3.223-3.214-4.102-4.436c-0.327-0.44-0.008-1.435,0.509-1.599c1.419-0.467,3.47-0.972,5.892-1.143
		c2.424-0.177,4.789,0.025,6.525,0.27c1.73,0.25,2.791,0.523,2.791,0.523l0.832,0.217l0.192,0.053
		c4.19,1.247,5.879-4.512,2.425-5.701l0.007-0.004l-0.013-0.004h-0.005l-0.002-0.002L68.431,31.61"/>
	<path clip-path="url(#SVGID_2_)" fill="#77913B" d="M43.972,1.793c-0.057,0.101-3.121,5.062-4.873,12.151
		c-1.737,7.102-0.918,12.529-0.897,12.687c0.132,0.893,0.618,1.649,1.271,2.144c0.004,0.003,0.011,0.003,0.013,0.008
		c0.004,0.002,0.004,0.005,0.011,0.006v-0.001c0.662,0.48,1.526,0.716,2.401,0.565c0.155-0.024,5.495-0.914,11.611-4.787
		c6.105-3.879,9.806-8.371,9.884-8.454l0.439-0.592l0.004-0.005h0.004l0.006-0.016l-0.006,0.003
		c2.101-3.023-2.602-6.677-5.268-3.162l-0.125,0.156l-0.547,0.671c-0.002,0-0.697,0.853-1.959,2.087
		c-1.259,1.235-3.052,2.805-5.119,4.114c-2.06,1.304-4.008,2.113-5.426,2.588c-0.511,0.171-1.345-0.441-1.341-0.988
		c0.008-1.515,0.16-3.648,0.752-6.036c0.583-2.396,1.5-4.614,2.268-6.214c0.771-1.597,1.354-2.531,1.355-2.532l0.459-0.735
		l0.106-0.171c2.466-3.664-2.408-7.067-4.59-4.105V1.166l-0.01,0.01v0.006l-0.006,0.003L43.972,1.793"/>
	<path clip-path="url(#SVGID_2_)" fill="#F68D2E" d="M8.471,16.186c0.076,0.085,3.777,4.578,9.879,8.457
		c6.122,3.872,11.459,4.758,11.614,4.789c0.874,0.146,1.738-0.092,2.4-0.566l0.003,0.003c0.004-0.004,0.005-0.008,0.009-0.013
		c0.003-0.003,0.005-0.003,0.008-0.004v-0.005c0.658-0.492,1.142-1.249,1.272-2.141c0.021-0.16,0.84-5.585-0.896-12.689
		c-1.75-7.088-4.814-12.048-4.872-12.148L27.469,1.26l-0.001-0.005c0,0-0.003-0.001-0.003-0.004L27.46,1.24l-0.001,0.007
		c-2.186-2.965-7.059,0.448-4.593,4.105l0.107,0.173l0.458,0.733c0,0.004,0.585,0.938,1.351,2.532c0.768,1.6,1.691,3.82,2.276,6.213
		c0.583,2.392,0.742,4.522,0.747,6.039c0.005,0.552-0.828,1.16-1.341,0.988c-1.416-0.475-3.365-1.282-5.425-2.59
		c-2.064-1.305-3.86-2.877-5.123-4.112c-1.257-1.23-1.953-2.086-1.953-2.086l-0.547-0.675l-0.127-0.151
		c-2.67-3.512-7.369,0.138-5.268,3.162l-0.004-0.003l0.004,0.014h0.005l0.006,0.008L8.471,16.186"/>
	<path clip-path="url(#SVGID_2_)" fill="#F68D2E" d="M10.988,54.898c0.103-0.047,5.456-2.23,10.977-6.923
		c5.522-4.711,7.999-9.589,8.072-9.728c0.416-0.8,0.458-1.706,0.214-2.488h0.003c0-0.011-0.004-0.011-0.008-0.018
		c-0.003-0.008,0-0.008-0.003-0.015h-0.002c-0.257-0.784-0.816-1.487-1.615-1.889c-0.14-0.07-4.974-2.534-12.164-3.052
		C9.274,30.284,3.68,31.711,3.57,31.731l-0.699,0.217L2.864,31.95H2.86l-0.016,0.004l0.01,0.006
		c-3.454,1.186-1.764,6.948,2.428,5.696l0.191-0.048l0.831-0.217c0.003,0,1.062-0.279,2.793-0.521
		c1.736-0.246,4.097-0.45,6.524-0.277c2.423,0.172,4.471,0.684,5.892,1.144c0.515,0.166,0.829,1.163,0.511,1.604
		c-0.882,1.215-2.241,2.852-4.106,4.436c-1.859,1.588-3.888,2.835-5.435,3.673c-1.544,0.83-2.562,1.236-2.562,1.236l-0.799,0.324
		l-0.185,0.073c-4.112,1.493-2.145,7.158,1.338,6.062l-0.004,0.006l0.019-0.006l0.006-0.005L10.988,54.898"/>
</g>
<g>
	<path fill="#77913B" d="M77,4h5.207l23.054,54.959h0.166L128.232,4h5.206v59.009h-3.636V8.463h-0.165l-22.477,54.546h-3.635
		L80.801,8.463h-0.165v54.546H77V4z"/>
	<path fill="#77913B" d="M144.427,42.182v0.497c0,2.479,0.331,4.849,0.995,7.106c0.662,2.26,1.642,4.244,2.939,5.951
		c1.298,1.708,2.929,3.059,4.891,4.05c1.959,0.992,4.237,1.488,6.833,1.488c4.255,0,7.623-1.117,10.108-3.349
		c2.487-2.23,4.198-5.331,5.138-9.298h3.141c-0.938,4.961-2.963,8.762-6.073,11.407C169.285,62.68,165.168,64,160.044,64
		c-3.139,0-5.881-0.565-8.22-1.692c-2.343-1.13-4.298-2.672-5.868-4.63c-1.571-1.953-2.742-4.27-3.512-6.941
		c-0.772-2.671-1.157-5.55-1.157-8.638c0-2.974,0.399-5.825,1.198-8.552c0.797-2.728,1.995-5.125,3.595-7.19
		c1.598-2.066,3.594-3.719,5.99-4.959c2.396-1.24,5.22-1.859,8.471-1.859c2.974,0,5.604,0.551,7.892,1.653
		c2.284,1.103,4.2,2.603,5.742,4.504c1.541,1.901,2.713,4.104,3.513,6.612c0.797,2.508,1.198,5.194,1.198,8.058
		c0,0.275-0.015,0.592-0.042,0.95c-0.028,0.36-0.041,0.647-0.041,0.867H144.427z M175.662,39.454
		c-0.111-2.313-0.496-4.503-1.159-6.569c-0.664-2.066-1.645-3.885-2.942-5.455c-1.297-1.57-2.871-2.823-4.722-3.76
		c-1.851-0.937-3.964-1.405-6.34-1.405c-2.54,0-4.777,0.483-6.709,1.446c-1.936,0.964-3.563,2.231-4.891,3.802
		c-1.323,1.57-2.346,3.403-3.063,5.496c-0.718,2.096-1.161,4.244-1.326,6.446H175.662z"/>
	<path fill="#77913B" d="M189.296,29.951h0.249c0.384-1.376,1.086-2.672,2.106-3.884c1.019-1.211,2.259-2.258,3.719-3.141
		c1.459-0.88,3.084-1.556,4.876-2.025c1.789-0.467,3.648-0.674,5.577-0.62v3.141c-1.652-0.22-3.541-0.054-5.66,0.496
		c-2.121,0.552-4.146,1.764-6.073,3.637c-0.772,0.826-1.446,1.625-2.024,2.396c-0.579,0.772-1.062,1.625-1.447,2.562
		c-0.386,0.938-0.689,1.983-0.909,3.14c-0.221,1.159-0.359,2.535-0.413,4.133v23.224h-3.14V20.529h3.14V29.951z"/>
	<path fill="#77913B" d="M212.268,29.951h0.248c0.384-1.376,1.087-2.672,2.106-3.884c1.02-1.211,2.259-2.258,3.72-3.141
		c1.459-0.88,3.084-1.556,4.875-2.025c1.789-0.467,3.648-0.674,5.577-0.62v3.141c-1.652-0.22-3.54-0.054-5.66,0.496
		c-2.121,0.552-4.146,1.764-6.072,3.637c-0.773,0.826-1.446,1.625-2.025,2.396c-0.578,0.772-1.062,1.625-1.446,2.562
		c-0.386,0.938-0.69,1.983-0.909,3.14c-0.221,1.159-0.359,2.535-0.413,4.133v23.224h-3.14V20.529h3.14V29.951z"/>
	<path fill="#77913B" d="M232.845,12.512V4h3.139v8.512H232.845z M232.845,63.009V20.529h3.139v42.479H232.845z"/>
	<path fill="#77913B" d="M261.6,23.256h-9.255v29.67c0,1.709,0.192,3.059,0.578,4.05c0.385,0.991,0.978,1.748,1.776,2.271
		c0.799,0.526,1.763,0.841,2.893,0.95c1.128,0.112,2.438,0.139,3.925,0.083v2.728c-1.599,0.109-3.153,0.095-4.668-0.041
		c-1.517-0.137-2.853-0.551-4.009-1.24c-1.156-0.687-2.079-1.722-2.769-3.098c-0.688-1.378-0.978-3.278-0.866-5.703v-29.67h-7.851
		v-2.727h7.851V7.306h3.14v13.223h9.255V23.256z"/>
	<path fill="#77913B" d="M283,23.256h-9.254v29.67c0,1.709,0.192,3.059,0.578,4.05c0.385,0.991,0.978,1.748,1.775,2.271
		c0.799,0.526,1.764,0.841,2.894,0.95c1.129,0.112,2.438,0.139,3.925,0.083v2.728c-1.598,0.109-3.154,0.095-4.669-0.041
		c-1.516-0.137-2.851-0.551-4.008-1.24c-1.157-0.687-2.08-1.722-2.769-3.098c-0.689-1.378-0.979-3.278-0.867-5.703v-29.67h-7.85
		v-2.727h7.85V7.306h3.141v13.223H283V23.256z"/>
</g>
</svg>
