<?xml version="1.0" encoding="utf-8"?>
<!-- Generator: Adobe Illustrator 13.0.0, SVG Export Plug-In . SVG Version: 6.00 Build 14948)  -->
<!DOCTYPE svg PUBLIC "-//W3C//DTD SVG 1.1//EN" "http://www.w3.org/Graphics/SVG/1.1/DTD/svg11.dtd">
<svg version="1.1" id="Layer_1" xmlns="http://www.w3.org/2000/svg" xmlns:xlink="http://www.w3.org/1999/xlink" x="0px" y="0px"
	 width="328px" height="101.96px" viewBox="0 0 328 101.96" enable-background="new 0 0 328 101.96" xml:space="preserve">
<g>
	<defs>
		<rect id="SVGID_1_" x="2.5" y="1.98" width="324" height="98"/>
	</defs>
	<clipPath id="SVGID_2_">
		<use xlink:href="#SVGID_1_"  overflow="visible"/>
	</clipPath>
	<path clip-path="url(#SVGID_2_)" fill="#3C6589" d="M62.338,74.146c0-0.734-0.15-1.434-0.422-2.071
		c1.092-0.578,2.136-1.236,3.118-1.976c0.639,0.815,1.619,1.347,2.732,1.347c1.926,0,3.485-1.562,3.485-3.488
		c0-1.124-0.541-2.114-1.367-2.751c0.71-0.964,1.348-1.985,1.908-3.053c0.643,0.279,1.35,0.436,2.095,0.436
		c2.912,0,5.272-2.362,5.272-5.274c0-2.72-2.053-4.957-4.696-5.242c0.01-0.289,0.022-0.577,0.022-0.868
		c0-0.914-0.057-1.814-0.161-2.699c1.707-0.228,3.026-1.673,3.026-3.441c0-1.925-1.561-3.487-3.487-3.487
		c-0.464,0-0.908,0.094-1.313,0.26c-0.469-1.089-1.021-2.132-1.643-3.127c1.381-0.952,2.288-2.543,2.288-4.347
		c0-2.916-2.361-5.275-5.271-5.275c-1.783,0-3.354,0.886-4.309,2.239c-0.991-0.635-2.034-1.2-3.12-1.687
		c0.192-0.433,0.305-0.911,0.305-1.415c0-1.925-1.562-3.487-3.485-3.487c-1.776,0-3.227,1.333-3.442,3.052
		c-0.973-0.123-1.965-0.194-2.977-0.194c-0.151,0-0.303,0.01-0.453,0.012c-0.221-2.709-2.484-4.842-5.251-4.842
		c-2.912,0-5.271,2.362-5.271,5.275c0,0.729,0.149,1.423,0.416,2.054c-1.092,0.548-2.134,1.18-3.121,1.884
		c-0.63-0.897-1.668-1.486-2.848-1.486c-1.924,0-3.485,1.561-3.485,3.488c0,1.129,0.546,2.121,1.376,2.76
		c-0.77,0.991-1.465,2.042-2.071,3.151c-0.666-0.306-1.406-0.481-2.187-0.481c-2.912,0-5.271,2.363-5.271,5.275
		c0,2.692,2.013,4.906,4.613,5.231c-0.022,0.425-0.035,0.854-0.035,1.286c0,0.795,0.04,1.583,0.117,2.358
		c-1.709,0.226-3.033,1.671-3.033,3.441c0,1.927,1.561,3.488,3.485,3.488c0.434,0,0.847-0.088,1.231-0.234
		c0.501,1.204,1.098,2.354,1.781,3.447c-1.309,0.961-2.162,2.505-2.162,4.252c0,2.914,2.36,5.276,5.272,5.276
		c1.729,0,3.261-0.839,4.222-2.126c1.064,0.68,2.184,1.279,3.356,1.784c-0.149,0.391-0.242,0.811-0.242,1.254
		c0,1.927,1.561,3.488,3.486,3.488c1.75,0,3.185-1.295,3.433-2.978c0.868,0.098,1.748,0.152,2.641,0.152
		c0.316,0,0.63-0.01,0.942-0.023c0.315,2.612,2.53,4.635,5.228,4.635C59.977,79.42,62.338,77.06,62.338,74.146 M82.192,38.024
		c2.899,0,5.251-2.352,5.251-5.254c0-2.904-2.353-5.254-5.251-5.254c-2.9,0-5.249,2.351-5.249,5.254
		C76.943,35.672,79.292,38.024,82.192,38.024z M80.149,50.925c0,3.627,2.938,6.567,6.565,6.567c3.622,0,6.562-2.94,6.562-6.567
		s-2.939-6.567-6.562-6.567C83.087,44.358,80.149,47.298,80.149,50.925z M82.192,73.714c2.897,0,5.251-2.351,5.251-5.253
		c0-2.901-2.354-5.252-5.251-5.252c-2.9,0-5.249,2.351-5.249,5.252C76.943,71.364,79.292,73.714,82.192,73.714z M69.188,74.907
		c-3.624,0-6.562,2.938-6.562,6.565s2.938,6.568,6.562,6.568s6.561-2.941,6.561-6.568S72.812,74.907,69.188,74.907z M51.108,81.3
		c-2.901,0-5.249,2.352-5.249,5.253c0,2.9,2.348,5.253,5.249,5.253c2.899,0,5.25-2.353,5.25-5.253
		C56.359,83.652,54.007,81.3,51.108,81.3z M40.086,81.474c0-3.629-2.937-6.567-6.563-6.567c-3.622,0-6.559,2.938-6.559,6.567
		c0,3.625,2.937,6.566,6.559,6.566C37.15,88.041,40.086,85.099,40.086,81.474z M20.584,63.147c-2.899,0-5.252,2.353-5.252,5.252
		c0,2.902,2.354,5.255,5.252,5.255c2.897,0,5.248-2.353,5.248-5.255C25.832,65.5,23.481,63.147,20.584,63.147z M15.444,44.42
		c-3.625,0-6.564,2.94-6.564,6.57c0,3.625,2.938,6.566,6.564,6.566c3.622,0,6.563-2.941,6.563-6.566
		C22.007,47.36,19.066,44.42,15.444,44.42z M15.271,32.771c0,2.901,2.352,5.253,5.25,5.253c2.898,0,5.251-2.352,5.251-5.253
		c0-2.905-2.353-5.254-5.251-5.254C17.622,27.517,15.271,29.867,15.271,32.771z M33.564,26.25c3.624,0,6.562-2.939,6.562-6.568
		c0-3.626-2.938-6.567-6.562-6.567c-3.625,0-6.561,2.941-6.561,6.567C27.004,23.312,29.94,26.25,33.564,26.25z M51.157,20.536
		c2.897,0,5.249-2.353,5.249-5.253c0-2.902-2.352-5.254-5.249-5.254c-2.898,0-5.249,2.352-5.249,5.254
		C45.908,18.183,48.259,20.536,51.157,20.536z M62.627,19.757c0,3.627,2.939,6.567,6.563,6.567c3.622,0,6.562-2.94,6.562-6.567
		c0-3.627-2.94-6.566-6.562-6.566C65.566,13.19,62.627,16.13,62.627,19.757z M62.362,12.441c2.885-0.051,5.184-2.432,5.133-5.321
		c-0.048-2.891-2.43-5.19-5.317-5.138c-2.884,0.05-5.183,2.43-5.134,5.32C57.097,10.19,59.475,12.491,62.362,12.441z M83.198,23.153
		c2.186,0,3.96-1.774,3.96-3.962c0-2.19-1.774-3.963-3.96-3.963c-2.187,0-3.958,1.773-3.958,3.963
		C79.24,21.379,81.012,23.153,83.198,23.153z M94.651,43.978c2.885-0.05,5.185-2.429,5.134-5.318
		c-0.049-2.888-2.433-5.19-5.315-5.139c-2.886,0.052-5.187,2.432-5.135,5.322C89.385,41.731,91.766,44.03,94.651,43.978z
		 M94.644,58.908c-2.188,0-3.96,1.774-3.96,3.963c0,2.189,1.772,3.961,3.96,3.961c2.187,0,3.96-1.771,3.96-3.961
		C98.604,60.682,96.831,58.908,94.644,58.908z M83.343,77.275c-2.888,0.051-5.189,2.431-5.14,5.321
		c0.051,2.89,2.433,5.188,5.321,5.14c2.884-0.051,5.183-2.432,5.132-5.323C88.608,79.524,86.226,77.224,83.343,77.275z
		 M62.612,90.647c-2.188,0-3.958,1.774-3.958,3.963c0,2.189,1.771,3.961,3.958,3.961c2.187,0,3.96-1.771,3.96-3.961
		C66.572,92.421,64.798,90.647,62.612,90.647z M39.953,89.52c-2.886,0.051-5.187,2.433-5.135,5.322
		c0.049,2.889,2.43,5.188,5.318,5.136c2.883-0.049,5.182-2.429,5.133-5.319C45.22,91.771,42.839,89.471,39.953,89.52z
		 M19.099,78.768c-2.185,0-3.96,1.772-3.96,3.961s1.775,3.959,3.96,3.959s3.959-1.771,3.959-3.959S21.283,78.768,19.099,78.768z
		 M7.636,57.945c-2.885,0.049-5.185,2.429-5.135,5.317c0.049,2.892,2.432,5.189,5.318,5.139c2.884-0.049,5.184-2.429,5.135-5.321
		C12.904,60.192,10.521,57.892,7.636,57.945z M7.643,43.087c2.184,0,3.956-1.773,3.956-3.964c0-2.189-1.772-3.964-3.956-3.964
		c-2.188,0-3.962,1.775-3.962,3.964C3.681,41.314,5.456,43.087,7.643,43.087z M18.932,24.655c2.884-0.05,5.183-2.432,5.131-5.321
		c-0.047-2.891-2.429-5.189-5.314-5.141c-2.885,0.051-5.185,2.433-5.134,5.323C13.666,22.406,16.045,24.707,18.932,24.655z
		 M39.698,11.244c2.186,0,3.96-1.772,3.96-3.964c0-2.189-1.775-3.962-3.96-3.962c-2.184,0-3.96,1.773-3.96,3.962
		C35.738,9.472,37.515,11.244,39.698,11.244z"/>
</g>
<path fill="#58595B" d="M138.674,43.872c-2.209,3.135-4.98,3.938-6.065,3.938c-5.1,0-8.152-3.818-8.152-8.479
	c0-5.385,3.775-9.926,8.595-9.926c3.13,0,5.742,2.894,5.742,5.587c0,1.246-0.12,1.326-0.843,1.485
	c-0.563,0.122-5.543,0.523-10.521,0.684c-0.12,5.989,3.654,8.079,6.545,8.079c1.326,0,2.53-0.483,4.135-1.93L138.674,43.872
	 M134.658,35.594c0.562,0,0.723-0.202,0.723-1.287c0-1.607-1.285-3.536-3.373-3.536c-1.928,0-4.017,1.969-4.338,4.943
	L134.658,35.594z"/>
<path fill="#58595B" d="M142.369,40.256c0.642,1.888,2.689,6.349,6.947,6.349c3.052,0,4.98-2.049,4.98-5.183
	c0-3.416-2.612-4.823-5.181-6.068c-1.325-0.643-6.746-2.531-6.746-7.355c0-3.978,3.011-7.394,8.271-7.394
	c1.125,0,2.491,0.242,3.333,0.522c0.522,0.161,1.083,0.361,1.525,0.442c0.162,1.407,0.403,3.015,0.723,5.425l-1.002,0.121
	c-0.683-2.371-1.807-5.184-5.461-5.184c-2.852,0-4.337,2.09-4.337,4.461c0,2.973,2.127,4.3,5.181,5.666
	c2.65,1.166,6.867,2.813,6.867,7.796c0,4.663-3.815,8.079-8.916,8.079c-1.446,0-2.81-0.283-3.814-0.604
	c-1.003-0.321-1.727-0.643-2.208-0.844c-0.321-1.045-0.763-3.898-1.165-6.068L142.369,40.256"/>
<path fill="#58595B" d="M175.218,43.47c-1.645,2.491-4.175,4.34-6.465,4.34c-5.101,0-8.313-4.06-8.313-8.479
	c0-3.014,1.444-5.706,3.653-7.515c2.412-1.969,5.182-2.411,6.548-2.411c0.923,0,2.65,0.362,3.532,1.084
	c0.283,0.242,0.403,0.482,0.403,0.885c0,0.884-0.806,1.768-1.325,1.768c-0.161,0-0.322-0.04-0.604-0.28
	c-1.565-1.407-2.89-1.728-4.177-1.728c-1.966,0-4.819,1.768-4.819,6.39c0,6.068,4.298,7.676,6.266,7.676
	c1.765,0,2.649-0.402,4.778-2.251L175.218,43.47"/>
<path fill="#58595B" d="M182.091,32.218c1.366-1.447,3.536-2.732,5.703-2.813c3.454-0.08,5.542,2.21,5.542,5.787v8.52
	c0,2.25,0.201,2.451,2.649,2.652v0.964h-8.515v-0.924c2.532-0.241,2.732-0.442,2.732-2.692v-7.314c0-2.894-1.043-4.783-3.977-4.783
	c-1.645,0.081-3.132,0.684-4.136,1.849v10.248c0,2.25,0.202,2.451,2.652,2.692v0.924h-8.515v-0.924
	c2.529-0.241,2.731-0.442,2.731-2.692V23.658c0-2.451-0.08-2.41-2.853-2.652v-0.803c1.889-0.361,4.457-1.005,5.983-1.406V32.218"/>
<path fill="#58595B" d="M198.317,39.09c0-6.751,5.22-9.685,8.874-9.685c5.1,0,8.754,3.898,8.754,8.921
	c0,6.27-4.658,9.484-8.714,9.484C201.57,47.811,198.317,43.269,198.317,39.09 M212.291,39.211c0-4.461-1.928-8.601-5.582-8.601
	c-2.691,0-4.739,2.773-4.739,6.993c0,5.104,2.209,9.001,5.702,9.001C210.161,46.604,212.291,44.636,212.291,39.211z"/>
<path fill="#58595B" d="M221.085,23.618c0-2.371-0.08-2.412-2.85-2.613v-0.803c1.927-0.361,4.538-1.005,5.982-1.406v24.915
	c0,2.25,0.2,2.451,2.933,2.692v0.924h-8.996v-0.924c2.73-0.241,2.931-0.442,2.931-2.692V23.618"/>
<path fill="#58595B" d="M240.883,47.811c-1.363-0.241-1.968-1.607-2.209-2.611c-1.685,1.084-3.853,2.611-4.697,2.611
	c-2.933,0-4.819-2.411-4.819-4.622c0-1.849,0.964-3.216,3.052-4.059c1.968-0.804,5.262-1.969,6.465-2.812v-1.367
	c0-2.491-1.163-3.817-3.293-3.817c-1.967,0-2.81,1.688-3.253,3.375c-0.119,0.483-0.479,0.764-0.922,0.764
	c-0.642,0-1.727-0.643-1.727-1.366c0-0.522,0.48-1.084,1.365-1.729c0.964-0.722,3.332-2.25,6.185-2.772
	c1.125,0,2.369,0.362,3.172,0.964c1.325,1.046,1.526,2.453,1.526,3.898v9.042c0,1.488,0.521,2.17,1.125,2.17
	c0.319,0,1.002-0.16,1.724-0.522l0.364,0.883L240.883,47.811 M238.674,37.603c-0.883,0.362-3.293,1.447-4.055,1.849
	c-1.405,0.763-2.087,1.566-2.087,3.014c0,2.13,1.444,3.134,2.647,3.134c0.925,0,2.411-0.724,3.494-1.566V37.603z"/>
<path fill="#58595B" d="M252.408,43.711c0,2.25,0.203,2.451,3.333,2.692v0.924h-9.235v-0.924c2.569-0.241,2.771-0.442,2.771-2.692
	v-9.283c0-2.411-0.081-2.451-2.731-2.772v-0.724c1.888-0.401,3.855-0.883,5.862-1.607v4.139h0.083
	c0.921-1.566,2.889-4.059,4.818-4.059c1.204,0,2.168,1.084,2.168,1.889c0,0.684-0.444,1.608-1.285,1.969
	c-0.443,0.201-0.804,0.121-1.003-0.04c-0.564-0.482-1.005-0.843-1.729-0.843c-0.964,0-2.009,0.762-3.053,2.853V43.711"/>
<path fill="#58595B" d="M262.248,41.702c0.645,2.332,2.45,4.902,4.82,4.902c1.446,0,2.851-1.004,2.851-2.973
	c0-1.648-0.925-2.813-3.132-3.778c-2.609-1.164-4.818-2.531-4.818-5.183c0-2.894,2.489-5.265,5.981-5.265
	c1.448,0,2.573,0.322,3.374,0.684c0.402,0.924,0.804,3.174,0.883,3.858l-0.962,0.241c-1.206-2.653-2.49-3.577-4.017-3.577
	c-1.807,0-2.651,1.407-2.651,2.733c0,1.648,1.729,2.772,3.494,3.496c2.932,1.206,4.859,2.772,4.859,5.466
	c0,3.696-3.412,5.505-6.466,5.505c-2.049,0-3.894-0.843-4.656-1.487c-0.24-0.603-0.484-2.813-0.484-4.38L262.248,41.702"/>
<path fill="#58595B" d="M280.804,32.218c1.364-1.447,3.532-2.732,5.7-2.813c3.455-0.08,5.543,2.21,5.543,5.787v8.52
	c0,2.25,0.199,2.451,2.65,2.652v0.964h-8.514v-0.924c2.53-0.241,2.73-0.442,2.73-2.692v-7.314c0-2.894-1.044-4.783-3.975-4.783
	c-1.648,0.081-3.133,0.684-4.136,1.849v10.248c0,2.25,0.2,2.451,2.648,2.692v0.924h-8.512v-0.924
	c2.53-0.241,2.729-0.442,2.729-2.692V23.658c0-2.451-0.08-2.41-2.851-2.652v-0.803c1.887-0.361,4.457-1.005,5.984-1.406V32.218"/>
<path fill="#58595B" d="M302.729,43.711c0,2.25,0.201,2.451,2.889,2.692v0.924h-8.873v-0.924c2.652-0.241,2.852-0.442,2.852-2.692
	v-9.283c0-2.411-0.079-2.451-2.731-2.772v-0.724c1.849-0.401,3.815-0.883,5.864-1.607V43.711 M303.251,22.131
	c0,1.206-0.923,2.17-2.088,2.17c-1.125,0-2.088-0.964-2.088-2.17c0-1.244,0.963-2.21,2.088-2.21
	C302.328,19.921,303.251,20.887,303.251,22.131z"/>
<path fill="#58595B" d="M312.97,31.897c1.525-0.804,3.091-1.568,4.618-2.251c0.36-0.16,0.923-0.241,1.283-0.241
	c4.538,0,6.907,3.939,6.907,7.315c0,6.268-4.538,10.086-10.28,11.091c-1.044-0.08-2.047-0.482-2.528-0.803v5.946
	c0,2.251,0.201,2.452,3.614,2.694v0.923h-9.641v-0.923c2.693-0.242,2.893-0.443,2.893-2.694V34.107c0-2.372-0.08-2.412-2.893-2.652
	v-0.724c1.81-0.402,3.977-1.085,6.026-1.728V31.897 M312.97,44.313c0.843,0.966,2.168,1.608,4.014,1.608
	c2.329,0,5.503-2.131,5.503-6.992c0-4.822-2.331-7.315-5.703-7.315c-1.124,0-2.568,0.562-3.813,1.487V44.313z"/>
<path fill="#58595B" d="M125.396,65.197v9.147c0,1.839,0.385,5.665,4.785,5.665c3.737,0,4.997-2.203,4.997-5.665v-9.147h0.941v9.147
	c0,3.634-1.367,6.476-5.938,6.476c-5.425,0-5.724-4.445-5.724-6.476v-9.147H125.396"/>
<path fill="#58595B" d="M139.081,69.47h0.812v2.353h0.043c0.555-1.647,2.221-2.608,3.93-2.608c3.866,0,3.909,3.099,3.909,4.445
	v6.797h-0.812v-6.945c0-1.134-0.127-3.592-3.118-3.592c-2.457,0-3.952,1.903-3.952,4.597v5.94h-0.812V69.47"/>
<path fill="#58595B" d="M150.782,65.197h0.812v2.2h-0.812V65.197z M150.782,69.47h0.812v10.986h-0.812V69.47z"/>
<polyline fill="#58595B" points="158.79,80.457 157.786,80.457 153.365,69.47 154.304,69.47 158.276,79.516 158.319,79.516 
	162.035,69.47 162.933,69.47 158.79,80.457 "/>
<path fill="#58595B" d="M164.83,75.071c-0.043,2.587,1.324,4.938,4.037,4.938c2.071,0,3.546-1.241,3.931-3.27h0.812
	c-0.428,2.563-2.136,3.975-4.742,3.975c-3.202,0-4.891-2.522-4.848-5.558c-0.043-3.014,1.537-5.942,4.848-5.942
	c3.438,0,4.977,2.714,4.826,5.856H164.83 M172.882,74.368c-0.042-2.311-1.495-4.448-4.016-4.448c-2.434,0-3.864,2.265-4.037,4.448
	H172.882z"/>
<path fill="#58595B" d="M176.829,71.907h0.063c0.429-1.433,2.224-2.585,4.209-2.499v0.811c-0.854-0.105-2.051,0.107-3.032,1.069
	c-0.813,0.834-1.154,1.519-1.24,3.164v6.005h-0.811V69.47h0.811V71.907"/>
<path fill="#58595B" d="M182.765,76.802c0.127,2.03,1.646,3.207,3.63,3.207c1.433,0,3.483-0.429,3.483-2.332
	c0-1.858-1.881-2.136-3.76-2.521c-1.902-0.385-3.78-0.876-3.78-3.121c0-2.181,2.115-2.821,3.971-2.821
	c2.328,0,4.06,1.004,4.06,3.506h-0.812c-0.021-1.987-1.41-2.801-3.248-2.801c-1.493,0-3.161,0.555-3.161,2.116
	c0,1.753,1.882,2.03,3.653,2.416c2.178,0.406,3.887,0.918,3.887,3.226c0,2.373-2.37,3.037-4.293,3.037
	c-2.499,0-4.378-1.347-4.441-3.912H182.765"/>
<path fill="#58595B" d="M193.269,65.197h0.812v2.2h-0.812V65.197z M193.269,69.47h0.812v10.986h-0.812V69.47z"/>
<path fill="#58595B" d="M201.126,70.175h-2.391v7.674c0,1.774,0.834,1.944,2.37,1.901v0.706c-1.665,0.107-3.268-0.127-3.182-2.607
	v-7.674h-2.029V69.47h2.029v-3.42h0.812v3.42h2.391V70.175"/>
<path fill="#58595B" d="M201.722,69.47h0.961l4.079,10.024l3.76-10.024h0.92l-4.7,12.162c-0.448,1.069-0.812,1.903-1.282,2.266
	c-0.575,0.449-1.323,0.492-2.561,0.492v-0.705c1.151,0,1.729-0.149,2.283-0.706c0.32-0.32,0.619-1.133,1.134-2.587L201.722,69.47"/>
<path fill="#58595B" d="M223.843,69.214c3.227,0,5.041,2.628,5.041,5.749s-1.814,5.751-5.041,5.751c-3.224,0-5.04-2.63-5.04-5.751
	S220.619,69.214,223.843,69.214 M223.843,80.009c2.755,0,4.23-2.416,4.23-5.046c0-2.629-1.476-5.044-4.23-5.044
	c-2.754,0-4.228,2.415-4.228,5.044C219.615,77.593,221.089,80.009,223.843,80.009z"/>
<path fill="#58595B" d="M230.011,70.175V69.47h1.966v-2.265c0-1.538,1.09-2.179,2.412-2.179c0.32,0,0.644,0.043,0.964,0.105v0.705
	c-0.32-0.064-0.644-0.107-0.964-0.107c-0.895,0-1.601,0.32-1.601,1.54v2.2h2.285v0.705h-2.285v10.281h-0.812V70.175H230.011"/>
<path fill="#58595B" d="M255.168,69.75c-0.405-2.565-2.648-4.104-5.189-4.104c-3.995,0-6.323,3.27-6.323,7.182
	s2.328,7.182,6.323,7.182c2.968,0,5.273-2.652,5.445-5.493h0.94c-0.342,3.633-3.034,6.304-6.386,6.304
	c-4.571,0-7.263-3.525-7.263-7.992c0-4.468,2.691-7.995,7.263-7.995c5.402,0,6.107,4.702,6.13,4.917H255.168"/>
<path fill="#58595B" d="M266.696,78.426c0,0.641,0,1.324,0.725,1.324c0.149,0,0.343-0.021,0.599-0.062v0.685
	c-0.235,0.041-0.449,0.084-0.662,0.084c-1.281,0-1.474-0.706-1.474-1.603v-0.576h-0.041c-0.515,1.303-1.988,2.437-4.081,2.437
	c-2.07,0-3.675-0.791-3.675-3.1c0-2.565,2.224-3.099,4.036-3.247c3.633-0.259,3.781-0.493,3.781-2.289
	c0-0.492-0.554-2.159-3.054-2.159c-1.964,0-3.268,1.028-3.374,2.93h-0.812c0.106-2.416,1.603-3.635,4.186-3.635
	c1.924,0,3.846,0.598,3.846,2.864V78.426 M265.884,74.216c-0.642,0.726-2.394,0.642-3.973,0.854
	c-1.922,0.213-3.011,0.896-3.011,2.544c0,1.325,0.961,2.395,2.882,2.395c3.697,0,4.102-3.164,4.102-3.74V74.216z"/>
<rect x="269.896" y="65.197" fill="#58595B" width="0.812" height="15.26"/>
<path fill="#58595B" d="M273.91,65.197h0.812v2.2h-0.812V65.197z M273.91,69.47h0.812v10.986h-0.812V69.47z"/>
<path fill="#58595B" d="M276.535,70.175V69.47h1.964v-2.265c0-1.538,1.091-2.179,2.414-2.179c0.321,0,0.643,0.043,0.962,0.105v0.705
	c-0.319-0.064-0.641-0.107-0.962-0.107c-0.896,0-1.601,0.32-1.601,1.54v2.2h2.284v0.705h-2.284v10.281h-0.813V70.175H276.535"/>
<path fill="#58595B" d="M287.831,69.214c3.227,0,5.042,2.628,5.042,5.749s-1.815,5.751-5.042,5.751c-3.223,0-5.04-2.63-5.04-5.751
	S284.608,69.214,287.831,69.214 M287.831,80.009c2.757,0,4.23-2.416,4.23-5.046c0-2.629-1.474-5.044-4.23-5.044
	c-2.753,0-4.227,2.415-4.227,5.044C283.604,77.593,285.078,80.009,287.831,80.009z"/>
<path fill="#58595B" d="M296.008,71.907h0.063c0.428-1.433,2.224-2.585,4.208-2.499v0.811c-0.854-0.105-2.049,0.107-3.032,1.069
	c-0.812,0.834-1.153,1.519-1.239,3.164v6.005h-0.811V69.47h0.811V71.907"/>
<path fill="#58595B" d="M301.56,69.47h0.81v2.353h0.043c0.558-1.647,2.224-2.608,3.932-2.608c3.864,0,3.907,3.099,3.907,4.445v6.797
	h-0.811v-6.945c0-1.134-0.128-3.592-3.119-3.592c-2.456,0-3.952,1.903-3.952,4.597v5.94h-0.81V69.47"/>
<path fill="#58595B" d="M313.261,65.197h0.81v2.2h-0.81V65.197z M313.261,69.47h0.81v10.986h-0.81V69.47z"/>
<path fill="#58595B" d="M325.176,78.426c0,0.641,0,1.324,0.726,1.324c0.149,0,0.342-0.021,0.599-0.062v0.685
	c-0.234,0.041-0.449,0.084-0.662,0.084c-1.281,0-1.476-0.706-1.476-1.603v-0.576h-0.041c-0.512,1.303-1.986,2.437-4.081,2.437
	c-2.068,0-3.673-0.791-3.673-3.1c0-2.565,2.224-3.099,4.036-3.247c3.632-0.259,3.781-0.493,3.781-2.289
	c0-0.492-0.554-2.159-3.054-2.159c-1.966,0-3.268,1.028-3.374,2.93h-0.812c0.106-2.416,1.603-3.635,4.186-3.635
	c1.924,0,3.845,0.598,3.845,2.864V78.426 M324.362,74.216c-0.639,0.726-2.391,0.642-3.971,0.854
	c-1.921,0.213-3.011,0.896-3.011,2.544c0,1.325,0.961,2.395,2.882,2.395c3.697,0,4.1-3.164,4.1-3.74V74.216z"/>
</svg>
