<?xml version="1.0" encoding="utf-8"?>
<!-- Generator: Adobe Illustrator 13.0.0, SVG Export Plug-In . SVG Version: 6.00 Build 14948)  -->
<!DOCTYPE svg PUBLIC "-//W3C//DTD SVG 1.1//EN" "http://www.w3.org/Graphics/SVG/1.1/DTD/svg11.dtd">
<svg version="1.1" id="Layer_1" xmlns="http://www.w3.org/2000/svg" xmlns:xlink="http://www.w3.org/1999/xlink" x="0px" y="0px"
	 width="1438.996px" height="305.057px" viewBox="0.002 902.972 1438.996 305.057"
	 enable-background="new 0.002 902.972 1438.996 305.057" xml:space="preserve">
<g>
	<path fill="#F37024" d="M53.488,1085.814c13.098,45.88,63.602,61.346,85.848,66.379c-20.592-11.034-57.259-29.527-68.985-70.6
		c-11.727-41.074,10.182-74.285,22.108-93.54C75.879,1002.881,40.387,1039.965,53.488,1085.814"/>
	<path fill="#F78F2F" d="M26.262,1092.615c7.076,24.791,34.458,38.803,50.324,44.241c-13.732-8.38-31.532-28.847-36.896-47.611
		c-5.335-18.69,0.11-41.346,6.515-58.425c-10.926,12.904-26.989,37.097-19.94,61.795"/>
	<path fill="#F37024" d="M33.673,1125.974c-6.042-7.76-14.849-15.643-19.42-30.392c-3.481-11.241-0.518-24.268,0.62-35.207
		c-5.125,10.14-15.487,23.828-11.467,37.949c4.033,14.087,20.509,21.335,30.271,27.649 M317.695,1019.399
		c-13.116-45.863-63.595-61.346-85.868-66.38c20.592,11.045,57.269,29.545,69.006,70.621c11.726,41.035-10.189,74.277-22.129,93.525
		c16.586-14.827,52.082-51.916,38.991-97.77"/>
	<path fill="#F78F2F" d="M344.908,1012.599c-7.066-24.786-34.469-38.804-50.317-44.235c13.729,8.373,31.528,28.838,36.882,47.593
		c5.342,18.69-0.104,41.362-6.515,58.416c10.927-12.87,26.989-37.07,19.944-61.774"/>
	<path fill="#F37024" d="M337.177,979.329c6.042,7.749,14.855,15.656,19.429,30.38c3.481,11.256,0.535,24.276-0.621,35.208
		c5.119-10.138,15.501-23.828,11.461-37.932c-4.033-14.104-20.498-21.324-30.273-27.656 M214.671,1154.953
		c48.86-12.284,65.339-59.685,70.724-80.574c-11.789,19.345-31.487,53.753-75.263,64.749c-43.748,11.019-79.168-9.562-99.673-20.759
		c15.804,15.56,55.329,48.881,104.209,36.588"/>
	<path fill="#F78F2F" d="M221.889,1180.495c26.427-6.645,41.348-32.347,47.136-47.219c-8.927,12.87-30.729,29.58-50.724,34.622
		c-19.913,4.999-44.058-0.104-62.251-6.128c13.739,10.249,39.511,25.339,65.836,18.725"/>
	<path fill="#F37024" d="M257.365,1173.239c-8.273,5.672-16.704,13.948-32.394,18.234c-11.981,3.265-25.869,0.504-37.519-0.586
		c10.796,4.828,25.386,14.537,40.432,10.759c15.003-3.76,22.722-19.234,29.478-28.403 M156.236,950.329
		c-48.87,12.297-65.353,59.69-70.73,80.567c11.789-19.3,31.484-53.732,75.246-64.75c43.768-10.994,79.174,9.586,99.663,20.773
		c-15.787-15.552-55.309-48.877-104.179-36.587"/>
	<path fill="#F78F2F" d="M148.999,924.794c-26.414,6.645-41.345,32.345-47.119,47.208c8.906-12.849,30.705-29.58,50.704-34.615
		c19.922-5,44.06,0.104,62.264,6.121C201.094,933.26,175.329,918.173,148.999,924.794"/>
	<path fill="#F37024" d="M113.457,931.743c8.272-5.663,16.683-13.938,32.366-18.225c11.996-3.262,25.872-0.489,37.537,0.586
		c-10.816-4.821-25.411-14.535-40.439-10.749c-15.017,3.766-22.735,19.228-29.47,28.387 M515.287,1063.22
		c-39.073,0-61.055-29.441-61.055-61.187c0-31.735,22.726-60.484,61.245-60.484c15.966,0,25.92,3.345,35.131,8.817l-7.336,10.414
		c-7.325-4.769-16.345-7.766-28.174-7.766c-30.067,0-45.472,23.276-45.472,48.667c0,25.745,14.84,49.907,46.027,49.907
		c13.525,0,23.301-4.234,30.622-10.055l6.773,9.872c-6.573,5.649-20.292,11.822-37.761,11.822"/>
	<path fill="#F37024" d="M626.139,980.174c-3.943-9.873-5.64-14.811-7.707-20.283h-0.373c-2.068,5.821-4.136,11.293-7.707,20.283
		l-15.967,40.201h47.54L626.139,980.174z M578.227,1061.106h-14.462l47.912-117.433h14.27l48.108,117.437H658.08l-11.457-29.104
		h-56.928l-11.464,29.104L578.227,1061.106z M695.663,1061.11V943.674h14.648v105.794h49.223v11.643H695.663z M785.66,943.674
		h14.656v117.437H785.66V943.674z"/>
	<g>
		<path fill="#7D7E80" d="M863.25,1063.22c-19.166,0-30.995-7.932-35.518-11.986l7.525-9.872
			c2.809,2.458,11.822,10.393,28.55,10.393c15.401,0,25.548-9.51,25.548-19.917c0-14.29-14.281-20.283-28.746-26.979
			c-15.223-7.059-29.119-14.641-29.119-33.335c0-19.214,17.289-29.977,36.443-29.977c18.614,0,28.759,6.345,32.884,9.352
			l-7.134,10.228c-4.324-3.18-12.779-8.114-25.933-8.114c-12.396,0-21.798,7.056-21.798,17.804
			c0,11.645,10.147,17.104,22.552,22.573c16.522,7.396,35.688,15.345,35.688,38.256c0,18.524-16.718,31.565-40.95,31.565
			 M961.141,955.308H945.93v46.725h14.658c21.972,0,30.984-8.448,30.984-23.979c0.008-13.394-8.254-22.746-30.436-22.746
			 M960.588,1013.679H945.93v47.436h-14.656v-117.44h31.382c25.176,0,43.968,11.283,43.968,33.855
			C1006.623,1000.626,989.705,1013.679,960.588,1013.679"/>
	</g>
	<path fill="#7D7E80" d="M1118.594,1061.11v-56.07h-70.832v56.07h-14.65V943.674h14.65v49.725h70.832v-49.725h14.648v117.437
		H1118.594z M1169.333,1061.11V943.674h64.25v11.634h-49.601v37.735h43.568v11.635h-43.568v44.793h50.91v11.643L1169.333,1061.11z
		 M1296.144,955.308h-17.648v40.38h18.778c18.6,0,27.052-7.396,27.052-20.448C1324.325,962.188,1315.309,955.308,1296.144,955.308
		 M1331.096,1061.11l-25.176-33.325c-14.658-19.396-16.904-20.814-25.371-20.814h-2.058v54.139h-14.669V943.674h34.014
		c26.113,0,41.518,11.462,41.518,31.208c0,19.569-15.211,29.621-35.131,30.683v0.352c2.439,1.586,5.826,5.117,13.153,14.642
		l30.998,40.552H1331.096L1331.096,1061.11z M1370.939,943.674v117.437h65.561v-11.635h-50.91v-44.794h43.567v-11.638h-43.567
		v-37.735h49.6v-11.634H1370.939z"/>
	<g>
		<path fill="#7D7E80" d="M478.544,1163.437c-12.982,0-18.793-6.483-18.793-17.242v-26.708h7.813v26
			c0,8.036,3.316,11.855,11.183,11.855c7.459,0,10.771-4.403,10.771-11.138v-26.714h7.259v26.117
			C496.778,1156.824,490.842,1163.437,478.544,1163.437"/>
		<path fill="#7D7E80" d="M544.379,1162.656l-20.041-27.035c-2.144-2.854-3.999-5.903-4.067-6.034h-0.138
			c0,0.131,0.275,2.792,0.275,5.262v27.812h-7.125v-43.18h7.811l18.854,25.414c2.482,3.364,4.488,6.673,4.626,6.875h0.138
			c0-0.265-0.276-3.047-0.276-6.355v-25.932h7.122v43.174h-7.184H544.379z"/>
	</g>
	<path fill="#7D7E80" d="M568.611,1119.48h7.814v43.172h-7.814V1119.48z M613.868,1162.656h-7.462l-17.758-43.174h8.431
		l10.633,27.615c1.248,3.31,2.558,7.324,2.558,7.324h0.138c0,0,1.248-4.021,2.481-7.324l10.3-27.621h7.804l-17.131,43.18H613.868z
		 M642.649,1162.656v-43.174h25.231v6.087h-17.476v11.546h15.409v5.834h-15.409v13.62h17.959v6.083L642.649,1162.656z"/>
	<g>
		<path fill="#7D7E80" d="M696.11,1125.248h-5.595v13.222h6.011c5.939,0,8.637-2.399,8.637-6.676c0-4.275-2.826-6.546-9.051-6.546
			 M707.722,1162.656l-8.772-12.253c-4.35-6.021-5.181-6.481-7.803-6.481h-0.631v18.738h-7.804v-43.174h14.029
			c10.282,0,16.235,4.277,16.235,11.994c0,7.124-5.322,10.759-11.685,11.473v0.124c1.11,0.713,2.496,2.275,5.114,5.828
			l10.083,13.747h-8.769L707.722,1162.656z M738.474,1163.437c-7.261,0-11.886-2.794-13.675-4.345l3.516-5.122
			c1.035,0.778,4.423,3.497,10.159,3.497c5.102,0,8.217-2.786,8.217-6.028c0-4.47-5.043-6.104-10.362-8.562
			c-5.67-2.656-10.295-5.635-10.295-12.638c0-7.262,6.494-11.553,14.235-11.553c7.179,0,11.123,2.345,12.851,3.576l-3.388,5.183
			c-1.587-1.034-4.826-2.783-9.19-2.783c-4.15,0-6.973,2.001-6.973,5.438c0,3.766,3.652,5.258,8.355,7.275
			c6.08,2.656,12.442,5.573,12.442,13.741c0,7.387-6.222,12.312-15.891,12.312"/>
	</g>
	<path fill="#7D7E80" d="M768.461,1119.48h7.803v43.172h-7.803V1119.48z M809.341,1125.573v37.087h-7.896v-37.087H788.59v-6.091
		h33.504v6.091H809.341z M853.253,1146.317v16.339h-7.825v-16.339l-15.338-26.837h8.687l10.857,20.034h0.104l10.822-20.034h7.584
		L853.253,1146.317z M919.123,1124.666c-10.02,0-15.124,7.455-15.124,16.277c0,8.82,4.964,16.523,14.925,16.523
		c10.078,0,15.046-7.587,15.046-16.339c0-8.82-4.825-16.466-14.847-16.466 M919.123,1163.437c-14.855,0-23.353-10.563-23.353-22.305
		c0-11.794,8.293-22.436,23.153-22.436c14.925,0,23.278,10.518,23.278,22.243c-0.006,11.793-8.236,22.499-23.079,22.499"/>
	<path fill="#7D7E80" d="M963.899,1125.573v12h15.405v5.897h-15.405v19.189h-7.825v-43.174h25.368v6.087H963.899z"/>
	<g>
		<path fill="#7D7E80" d="M1034.146,1163.437c-15.127,0-23.077-10.761-23.077-22.432c0-11.743,8.227-22.311,23.214-22.311
			c5.936,0,9.882,1.241,13.408,3.378l-3.667,5.38c-2.62-1.62-5.671-2.655-9.944-2.655c-9.676,0-14.78,7.39-14.78,15.951
			c0,8.822,4.901,16.532,14.987,16.532c4.976,0,8.293-1.551,10.774-3.435l3.388,5.117c-2.42,2.08-7.736,4.483-14.303,4.483"/>
		<path fill="#7D7E80" d="M1079.99,1135.104c-1.38-3.619-1.861-5.182-2.62-7.454h-0.139c-0.759,2.335-1.251,3.882-2.638,7.454
			l-4.755,12.319h14.924L1079.99,1135.104L1079.99,1135.104z M1064.029,1162.656h-7.804l17.546-43.174h7.523l17.891,43.174h-8.495
			l-3.591-9.266h-19.484L1064.029,1162.656z"/>
	</g>
	<path fill="#7D7E80" d="M1111.01,1162.656v-43.174h7.79v37.216h17.546v5.958H1111.01z M1150.028,1119.48h7.815v43.172h-7.815
		V1119.48z M1182.982,1125.573v12h15.408v5.897h-15.408v19.189h-7.824v-43.174h25.369v6.087H1182.982z"/>
	<g>
		<path fill="#7D7E80" d="M1234.272,1124.666c-10.021,0-15.125,7.455-15.125,16.277c0,8.82,4.964,16.523,14.924,16.523
			c10.065,0,15.046-7.587,15.046-16.339c0-8.82-4.824-16.466-14.845-16.466 M1234.272,1163.437
			c-14.856,0-23.354-10.563-23.354-22.305c0-11.794,8.293-22.436,23.152-22.436c14.927,0,23.28,10.518,23.28,22.243
			c0,11.793-8.232,22.499-23.079,22.499"/>
		<path fill="#7D7E80" d="M1284.632,1125.248h-5.597v13.222h6.013c5.949,0,8.638-2.399,8.638-6.676c0-4.275-2.826-6.546-9.052-6.546
			 M1296.243,1162.656l-8.771-12.253c-4.351-6.021-5.183-6.481-7.804-6.481h-0.633v18.738h-7.803v-43.174h14.016
			c10.291,0,16.241,4.277,16.241,11.994c0,7.124-5.318,10.759-11.684,11.473v0.124c1.111,0.713,2.497,2.275,5.116,5.828
			l10.083,13.747h-8.77L1296.243,1162.656z M1347.846,1162.656l-20.026-27.035c-2.143-2.854-4.008-5.903-4.08-6.034h-0.138
			c0,0.131,0.275,2.792,0.275,5.262v27.812h-7.11v-43.18h7.804l18.854,25.414c2.496,3.364,4.498,6.673,4.635,6.875h0.129
			c0-0.265-0.268-3.047-0.268-6.355v-25.932h7.109v43.174h-7.186H1347.846z"/>
	</g>
	<path fill="#7D7E80" d="M1372.078,1119.48h7.813v43.172h-7.813V1119.48z M1416.061,1135.104c-1.387-3.619-1.862-5.182-2.62-7.454
		h-0.139c-0.759,2.335-1.25,3.882-2.626,7.454l-4.766,12.319h14.927L1416.061,1135.104z M1400.102,1162.656h-7.802l17.546-43.174
		h7.523l17.896,43.174h-8.497l-3.592-9.266h-19.485l-3.584,9.266H1400.102z"/>
</g>
</svg>
