<?xml version="1.0" encoding="utf-8"?>
<!-- Generator: Adobe Illustrator 25.1.0, SVG Export Plug-In . SVG Version: 6.00 Build 0)  -->
<svg version="1.1" id="Layer_1" xmlns="http://www.w3.org/2000/svg" xmlns:xlink="http://www.w3.org/1999/xlink" x="0px" y="0px"
	 viewBox="0 0 461.87 114.13" style="enable-background:new 0 0 461.87 114.13;" xml:space="preserve">
<style type="text/css">
	.st0{fill:#1A1A1A;}
	.st1{fill:#41843E;}
	.st2{fill:#A3CD39;}
</style>
<g>
	<path class="st0" d="M51.86,107.67h-7.88c-0.23,0-0.41-0.19-0.41-0.41V71.67c0-0.23,0.19-0.41,0.41-0.41h7.88
		c0.23,0,0.41,0.19,0.41,0.41v35.58C52.28,107.48,52.09,107.67,51.86,107.67z"/>
	<path class="st1" d="M35.15,20.76h-8.67c-0.26,0-0.46-0.21-0.46-0.46v-8.67c0-0.26,0.21-0.46,0.46-0.46h8.67
		c0.26,0,0.46,0.21,0.46,0.46v8.67C35.62,20.55,35.41,20.76,35.15,20.76z"/>
	<path class="st1" d="M50.38,35.88h-9.48c-0.36,0-0.65-0.29-0.65-0.65V24.79c0-0.36,0.29-0.65,0.65-0.65h9.48
		c0.36,0,0.65,0.29,0.65,0.65v10.44C51.03,35.59,50.74,35.88,50.38,35.88z"/>
	<path class="st2" d="M49.46,17.48h-7.63c-0.33,0-0.59-0.27-0.59-0.59V8.47c0-0.33,0.27-0.59,0.59-0.59h7.63
		c0.33,0,0.59,0.27,0.59,0.59v8.42C50.05,17.21,49.78,17.48,49.46,17.48z"/>
	<path class="st2" d="M64.97,36.98h-8.25c-0.43,0-0.79-0.35-0.79-0.79v-9.13c0-0.43,0.35-0.79,0.79-0.79h8.25
		c0.43,0,0.79,0.35,0.79,0.79v9.13C65.76,36.63,65.4,36.98,64.97,36.98z"/>
	<path class="st2" d="M34.26,35.62h-8.56c-0.35,0-0.63-0.28-0.63-0.63v-9.44c0-0.35,0.28-0.63,0.63-0.63h8.56
		c0.35,0,0.63,0.28,0.63,0.63v9.44C34.89,35.34,34.6,35.62,34.26,35.62z"/>
	<path class="st1" d="M19.29,36.8H11.4c-0.22,0-0.41-0.18-0.41-0.41v-8.67c0-0.22,0.18-0.41,0.41-0.41h7.89
		c0.22,0,0.41,0.18,0.41,0.41v8.67C19.69,36.62,19.51,36.8,19.29,36.8z"/>
	<path class="st1" d="M17.78,66.33H10.5c-0.39,0-0.71-0.32-0.71-0.71v-8.06c0-0.39,0.32-0.71,0.71-0.71h7.28
		c0.39,0,0.71,0.32,0.71,0.71v8.06C18.49,66,18.17,66.33,17.78,66.33z"/>
	<path class="st1" d="M85.22,66.15h-8.3c-0.11,0-0.2-0.09-0.2-0.2v-9.08c0-0.11,0.09-0.2,0.2-0.2h8.3c0.11,0,0.2,0.09,0.2,0.2v9.08
		C85.42,66.05,85.33,66.15,85.22,66.15z"/>
	<path class="st1" d="M67.05,84.49h-7.88c-0.23,0-0.41-0.19-0.41-0.41v-8.66c0-0.23,0.19-0.41,0.41-0.41h7.88
		c0.23,0,0.41,0.19,0.41,0.41v8.66C67.46,84.31,67.28,84.49,67.05,84.49z"/>
	<path class="st2" d="M22.55,23.61h-5.72c-0.15,0-0.27-0.12-0.27-0.27v-6.28c0-0.15,0.12-0.27,0.27-0.27h5.72
		c0.15,0,0.27,0.12,0.27,0.27v6.28C22.82,23.49,22.7,23.61,22.55,23.61z"/>
	<path class="st2" d="M75.42,23.49h-7.08c-0.15,0-0.27-0.12-0.27-0.27v-7.76c0-0.15,0.12-0.27,0.27-0.27h7.08
		c0.15,0,0.27,0.12,0.27,0.27v7.76C75.69,23.37,75.57,23.49,75.42,23.49z"/>
	<path class="st2" d="M65.99,66.06h-8.44c-0.15,0-0.27-0.12-0.27-0.27v-9.24c0-0.15,0.12-0.27,0.27-0.27h8.44
		c0.15,0,0.27,0.12,0.27,0.27v9.24C66.26,65.94,66.14,66.06,65.99,66.06z"/>
	<path class="st2" d="M17.67,51.67H6.59c-0.15,0-0.27-0.12-0.27-0.27V40.92c0-0.15,0.12-0.27,0.27-0.27h11.08
		c0.15,0,0.27,0.12,0.27,0.27V51.4C17.94,51.55,17.81,51.67,17.67,51.67z"/>
	<path class="st2" d="M87.7,51.67h-9.57c-0.15,0-0.27-0.12-0.27-0.27V40.92c0-0.15,0.12-0.27,0.27-0.27h9.57
		c0.15,0,0.27,0.12,0.27,0.27V51.4C87.97,51.55,87.85,51.67,87.7,51.67z"/>
	<path class="st1" d="M71.29,52.99H60.5c-0.15,0-0.27-0.12-0.27-0.27v-11.8c0-0.15,0.12-0.27,0.27-0.27h10.78
		c0.15,0,0.27,0.12,0.27,0.27v11.8C71.56,52.87,71.44,52.99,71.29,52.99z"/>
	<path class="st1" d="M34.47,52.99H23.69c-0.15,0-0.27-0.12-0.27-0.27v-11.8c0-0.15,0.12-0.27,0.27-0.27h10.78
		c0.15,0,0.27,0.12,0.27,0.27v11.8C34.75,52.87,34.62,52.99,34.47,52.99z"/>
	<path class="st1" d="M83.67,36.37h-7.89c-0.22,0-0.41-0.18-0.41-0.41V27.3c0-0.22,0.18-0.41,0.41-0.41h7.89
		c0.22,0,0.41,0.18,0.41,0.41v8.67C84.08,36.19,83.89,36.37,83.67,36.37z"/>
	<path class="st1" d="M37.01,86.64h-7.88c-0.23,0-0.41-0.19-0.41-0.41v-8.66c0-0.23,0.19-0.41,0.41-0.41h7.88
		c0.23,0,0.41,0.19,0.41,0.41v8.66C37.43,86.45,37.24,86.64,37.01,86.64z"/>
	<path class="st2" d="M52.43,52.81H41.71c-0.23,0-0.41-0.19-0.41-0.41V40.63c0-0.23,0.19-0.41,0.41-0.41h10.73
		c0.23,0,0.41,0.19,0.41,0.41v11.76C52.85,52.62,52.66,52.81,52.43,52.81z"/>
	<path class="st1" d="M64.57,19.63H55.9c-0.26,0-0.46-0.21-0.46-0.46V10.5c0-0.26,0.21-0.46,0.46-0.46h8.67
		c0.26,0,0.46,0.21,0.46,0.46v8.67C65.03,19.43,64.82,19.63,64.57,19.63z"/>
	<path class="st1" d="M53.59,72.14h-11.4c-0.23,0-0.41-0.19-0.41-0.41v-11.4c0-0.23,0.19-0.41,0.41-0.41h11.4
		c0.23,0,0.41,0.19,0.41,0.41v11.4C54.01,71.95,53.82,72.14,53.59,72.14z"/>
	
		<rect x="37.69" y="12.51" transform="matrix(0.6435 -0.7654 0.7654 0.6435 -3.3599 37.1749)" class="st1" width="1.08" height="19.37"/>
	
		<rect x="46.94" y="21.64" transform="matrix(0.6666 -0.7454 0.7454 0.6666 1.218 47.0875)" class="st1" width="12.63" height="1.08"/>
	
		<rect x="64.76" y="38.41" transform="matrix(0.6711 -0.7414 0.7414 0.6711 -4.8789 66.9086)" class="st1" width="16.41" height="1.08"/>
	
		<rect x="74.37" y="49.45" transform="matrix(0.6499 -0.7601 0.7601 0.6499 -16.1739 76.4687)" class="st1" width="1.08" height="12.68"/>
	
		<rect x="54.96" y="62.64" transform="matrix(0.6697 -0.7426 0.7426 0.6697 -35.7962 65.2857)" class="st1" width="1.08" height="20.5"/>
	
		<rect x="29.95" y="72.53" transform="matrix(0.6608 -0.7506 0.7506 0.6608 -41.0199 55.376)" class="st1" width="21.6" height="1.08"/>
	
		<rect x="11.75" y="55.2" transform="matrix(0.7129 -0.7012 0.7012 0.7129 -33.3256 30.0799)" class="st1" width="16.66" height="1.08"/>
	
		<rect x="21.18" y="32.73" transform="matrix(0.7309 -0.6825 0.6825 0.7309 -20.2776 25.1267)" class="st1" width="1.08" height="11.1"/>
	<path class="st2" d="M37.15,71.65H24.32c-0.15,0-0.27-0.12-0.27-0.27V58.54c0-0.15,0.12-0.27,0.27-0.27h12.83
		c0.15,0,0.27,0.12,0.27,0.27v12.83C37.43,71.52,37.3,71.65,37.15,71.65z"/>
	<path class="st2" d="M23.87,77.68h-5.13c-0.15,0-0.27-0.12-0.27-0.27v-5.64c0-0.15,0.12-0.27,0.27-0.27h5.13
		c0.15,0,0.27,0.12,0.27,0.27v5.64C24.15,77.56,24.02,77.68,23.87,77.68z"/>
	<path class="st2" d="M77.91,75.37h-7.22c-0.15,0-0.27-0.12-0.27-0.27v-7.22c0-0.15,0.12-0.27,0.27-0.27h7.22
		c0.15,0,0.27,0.12,0.27,0.27v7.22C78.18,75.25,78.06,75.37,77.91,75.37z"/>
	
		<rect x="38.27" y="31.65" transform="matrix(0.6732 -0.7395 0.7395 0.6732 -15.9203 41.3435)" class="st2" width="1.08" height="14.06"/>
	
		<rect x="45.86" y="38.82" transform="matrix(0.6752 -0.7377 0.7377 0.6752 -11.6351 52.2948)" class="st2" width="15.4" height="1.08"/>
	
		<rect x="54.62" y="45.33" transform="matrix(0.6832 -0.7303 0.7303 0.6832 -22.4238 57.5903)" class="st2" width="1.08" height="18.61"/>
	
		<rect x="29.91" y="52.77" transform="matrix(0.6653 -0.7466 0.7466 0.6653 -26.0817 48.448)" class="st2" width="22.17" height="1.08"/>
</g>
<g>
	<path class="st0" d="M98.2,107.63V41.84h27.62c20.71,0,35.6,12.43,35.6,32.84s-14.89,32.94-35.51,32.94H98.2z M144.06,74.69
		c0-10.16-6.11-18.05-18.15-18.05h-10.75v36.2h10.65C137.35,92.83,144.06,84.45,144.06,74.69z"/>
	<path class="st0" d="M213.49,107.63l-11.05-22.09h-8.68v22.09H176.8V41.84h32.94c14.6,0,22.88,9.67,22.88,21.9
		c0,11.44-7,17.56-13.12,19.73l13.41,24.16H213.49z M215.37,63.64c0-4.44-3.75-7-8.19-7h-13.41v14.1h13.41
		C211.62,70.74,215.37,68.27,215.37,63.64z"/>
	<path class="st0" d="M266.95,107.63V81.1L242,41.84h19.13l14.3,24.26l14.1-24.26h19.23L283.92,81.1v26.53H266.95z"/>
	<path class="st0" d="M359.27,107.63l-3.25-9.47h-25.94l-3.25,9.47h-19.23l24.76-65.79h21.3l24.85,65.79H359.27z M342.99,58.61
		l-8.38,24.76h16.77L342.99,58.61z"/>
	<path class="st0" d="M392.21,107.63V41.84h27.62c20.71,0,35.6,12.43,35.6,32.84s-14.89,32.94-35.51,32.94H392.21z M438.07,74.69
		c0-10.16-6.11-18.05-18.15-18.05h-10.75v36.2h10.65C431.37,92.83,438.07,84.45,438.07,74.69z"/>
</g>
</svg>
