<?xml version="1.0" encoding="utf-8"?>
<!-- Generator: Adobe Illustrator 13.0.0, SVG Export Plug-In . SVG Version: 6.00 Build 14948)  -->
<!DOCTYPE svg PUBLIC "-//W3C//DTD SVG 1.1//EN" "http://www.w3.org/Graphics/SVG/1.1/DTD/svg11.dtd">
<svg version="1.1" id="Layer_1" xmlns="http://www.w3.org/2000/svg" xmlns:xlink="http://www.w3.org/1999/xlink" x="0px" y="0px"
	 width="208px" height="32px" viewBox="0 0 208 32" enable-background="new 0 0 208 32" xml:space="preserve">
<polyline fill="#05788C" points="1.927,1.139 1.927,30.997 19.444,30.997 19.444,25.822 8.297,25.822 8.297,17.858 17.852,17.858 
	17.852,13.082 8.297,13.082 8.297,6.314 19.046,6.314 19.046,1.139 1.927,1.139 "/>
<polyline fill="#05788C" points="24.62,1.139 24.62,6.314 37.684,6.314 23.824,26.874 23.824,30.997 45.721,30.997 45.721,25.822 
	31.541,25.822 45.322,5.175 45.322,1.139 24.62,1.139 "/>
<rect x="51.692" y="1.138" fill="#05788C" width="5.971" height="29.858"/>
<g>
	<defs>
		<rect id="SVGID_1_" x="1.927" y="0.828" width="204.146" height="30.284"/>
	</defs>
	<clipPath id="SVGID_2_">
		<use xlink:href="#SVGID_1_"  overflow="visible"/>
	</clipPath>
	<path clip-path="url(#SVGID_2_)" fill="#05788C" d="M85.205,15.844c0,3.348-0.845,5.812-2.533,7.5
		c-1.689,1.688-4.222,2.479-7.599,2.479h-3.078V6.314h2.854c3.556,0,6.171,0.715,7.845,2.254
		C84.368,10.108,85.205,12.497,85.205,15.844 M91.885,15.665c0-2.152-0.336-4.117-1.009-5.895c-0.672-1.778-1.711-3.311-3.116-4.597
		c-1.405-1.285-3.183-2.278-5.335-2.981c-2.152-0.702-4.693-1.055-7.621-1.055h-9.178v29.859h8.954c2.959,0,5.529-0.396,7.711-1.188
		c2.181-0.791,3.982-1.875,5.402-3.25c1.42-1.374,2.473-2.996,3.161-4.863C91.541,19.827,91.885,17.816,91.885,15.665"/>
	<path clip-path="url(#SVGID_2_)" fill="#7D7F7F" d="M199.191,19.205h-2.448l-2.713,5.049l-2.767-5.049h-2.468l4.076,7.143v4.544
		h2.263v-4.524L199.191,19.205 M183.186,29.246c-1.402,0-2.637-0.467-3.721-1.122l-0.524,1.964c1.104,0.673,2.655,1.084,4.207,1.084
		c2.749,0,4.451-1.514,4.451-3.646c0-2.225-1.813-3.028-3.572-3.515c-1.607-0.43-2.654-0.804-2.654-1.758
		c0-0.804,0.598-1.384,1.963-1.384c1.104,0,2.413,0.393,3.44,1.01l0.562-1.926c-1.122-0.637-2.432-1.029-4.021-1.029
		c-2.6,0-4.188,1.384-4.188,3.46c0,2.3,1.945,3.048,3.628,3.515c1.72,0.469,2.599,0.823,2.599,1.796
		C185.354,28.629,184.457,29.246,183.186,29.246 M174.022,26.236h-3.534l1.776-5.068L174.022,26.236z M173.668,19.205h-2.769
		l-4.263,11.687h2.3l0.954-2.768h4.712l0.973,2.768h2.3L173.668,19.205z M165.271,30.892v-1.926h-5.722v-2.973h4.694v-1.927h-4.694
		v-2.936h5.722v-1.926h-7.966v11.687H165.271z M150.274,30.892v-1.926h-5.722v-2.973h4.694v-1.927h-4.694v-2.936h5.722v-1.926
		h-7.966v11.687H150.274z M137.541,25.076c0,2.6-1.57,3.89-4.039,3.89h-1.664v-7.835h1.552
		C136.063,21.131,137.541,22.439,137.541,25.076 M139.823,24.964c0-3.478-2.319-5.759-6.303-5.759h-3.964v11.687h3.814
		C137.522,30.892,139.823,28.573,139.823,24.964 M123.909,26.236h-3.534l1.776-5.068L123.909,26.236z M123.554,19.205h-2.767
		l-4.265,11.687h2.301l0.953-2.768h4.712l0.974,2.768h2.3L123.554,19.205z M112.765,30.892h2.207l-0.374-11.687h-3.123l-3.011,9.2
		l-3.01-9.2h-3.161L101.9,30.892h2.15l0.111-9.368l3.067,9.2h2.395l3.048-9.2L112.765,30.892z"/>
</g>
<path fill="#7D7F7F" d="M201.66,11.151c-1.402,0-2.637-0.47-3.722-1.123l-0.523,1.963c1.104,0.674,2.655,1.086,4.208,1.086
	c2.749,0,4.45-1.516,4.45-3.648c0-2.224-1.814-3.027-3.571-3.514c-1.609-0.43-2.656-0.805-2.656-1.758
	c0-0.804,0.599-1.384,1.964-1.384c1.104,0,2.412,0.392,3.44,1.01l0.561-1.927c-1.122-0.636-2.43-1.028-4.02-1.028
	c-2.6,0-4.189,1.383-4.189,3.459c0,2.301,1.945,3.048,3.628,3.517c1.721,0.467,2.6,0.821,2.6,1.795
	C203.829,10.533,202.932,11.151,201.66,11.151 M189.076,6.831V3.015h1.477c1.627,0,2.543,0.581,2.543,1.797
	c0,1.271-0.916,1.906-2.319,1.982L189.076,6.831z M189.094,8.625l1.683-0.112l2.601,4.282h2.599l-3.066-4.767
	c1.59-0.543,2.524-1.703,2.524-3.366c0-2.15-1.571-3.553-4.525-3.553h-4.096v11.686h2.281V8.625z M184.232,12.795V10.87h-5.722
	V7.896h4.693V5.971h-4.693V3.034h5.722V1.109h-7.966v11.686H184.232z M170.899,12.795h2.264V1.108h-2.264V12.795z M160.803,12.795
	h2.262V8.139h4.488V6.177h-4.488V3.09h5.518v-1.98h-7.779V12.795z M155.436,12.795h2.264V1.108h-2.264V12.795z M153.286,3.11V1.109
	h-10.079V3.11h3.908v9.685h2.263V3.11H153.286z M138.925,9.616l-5.535-8.507h-2.487v11.686h2.169V4.306l5.592,8.603h2.431V1.109
	h-2.169V9.616z M128.321,12.795V10.87H122.6V7.896h4.694V5.971H122.6V3.034h5.722V1.109h-7.966v11.686H128.321z M115.588,6.98
	c0,2.6-1.571,3.89-4.039,3.89h-1.664V3.034h1.552C114.11,3.034,115.588,4.343,115.588,6.98 M117.869,6.868
	c0-3.479-2.318-5.759-6.302-5.759h-3.965v11.686h3.815C115.568,12.795,117.869,10.479,117.869,6.868 M102.236,12.795h2.262V1.108
	h-2.262V12.795z"/>
</svg>
