<?xml version="1.0" encoding="utf-8"?>
<!-- Generator: Adobe Illustrator 13.0.0, SVG Export Plug-In . SVG Version: 6.00 Build 14948)  -->
<!DOCTYPE svg PUBLIC "-//W3C//DTD SVG 1.1//EN" "http://www.w3.org/Graphics/SVG/1.1/DTD/svg11.dtd">
<svg version="1.1" id="Layer_1" xmlns="http://www.w3.org/2000/svg" xmlns:xlink="http://www.w3.org/1999/xlink" x="0px" y="0px"
	 width="240px" height="104px" viewBox="0 0 240 104" enable-background="new 0 0 240 104" xml:space="preserve">
<g>
	<path fill="#F08B1D" d="M46.855,63.785c-0.012-0.104-0.378-5.528-2.887-11.823c-2.523-6.298-6.069-9.923-6.17-10.029
		c-0.583-0.596-1.358-0.897-2.121-0.905v-0.002h-0.008h-0.011v0.002c-0.763,0.008-1.541,0.309-2.122,0.905
		c-0.098,0.106-3.645,3.731-6.169,10.029c-2.51,6.295-2.876,11.72-2.888,11.823l-0.015,0.69v0.006v0.001V64.5l0.007-0.007
		c0.045,3.434,5.563,3.576,5.678-0.543l0.01-0.186l0.053-0.809c0-0.001,0.063-1.026,0.347-2.649
		c0.286-1.627,0.789-3.802,1.639-5.927c0.851-2.121,1.883-3.81,2.697-4.949c0.292-0.417,1.251-0.417,1.545,0
		c0.811,1.139,1.843,2.828,2.696,4.949c0.85,2.125,1.356,4.3,1.639,5.927c0.285,1.623,0.346,2.648,0.346,2.649l0.051,0.809
		l0.011,0.186c0.119,4.119,5.636,3.977,5.68,0.543l0.005,0.007v-0.018v-0.001v-0.006L46.855,63.785L46.855,63.785z"/>
	<path fill="#F08B1D" d="M65.859,33.309c-0.103-0.02-5.318-1.345-12.019-0.876c-6.704,0.478-11.211,2.77-11.342,2.834
		c-0.738,0.377-1.262,1.029-1.507,1.756v-0.001c0,0.002,0,0.009-0.002,0.013c0,0.003-0.004,0.007-0.005,0.011l0.004,0.001
		c-0.229,0.733-0.187,1.57,0.195,2.314c0.07,0.129,2.381,4.659,7.53,9.033c5.144,4.356,10.135,6.385,10.231,6.432l0.646,0.225
		l0.007,0.001h0.001l0.013,0.006l-0.004-0.007c3.245,1.02,5.083-4.245,1.245-5.628l-0.171-0.067l-0.746-0.3
		c-0.001,0-0.945-0.377-2.386-1.154c-1.445-0.774-3.334-1.934-5.068-3.408c-1.738-1.472-3.004-2.985-3.824-4.12
		c-0.303-0.408-0.007-1.331,0.475-1.485c1.323-0.432,3.234-0.901,5.492-1.061c2.26-0.163,4.463,0.025,6.083,0.252
		c1.613,0.231,2.601,0.485,2.601,0.485l0.775,0.202l0.18,0.048c3.907,1.159,5.48-4.189,2.261-5.293l0.007-0.004l-0.011-0.004h-0.006
		l-0.002-0.002L65.859,33.309L65.859,33.309z"/>
	<path fill="#F08B1D" d="M43.059,5.622c-0.052,0.094-2.909,4.7-4.542,11.283c-1.618,6.595-0.856,11.634-0.837,11.781
		c0.124,0.829,0.577,1.531,1.186,1.99c0.003,0.003,0.01,0.003,0.012,0.008c0.003,0.002,0.004,0.005,0.009,0.006l0.001-0.001
		c0.617,0.446,1.422,0.665,2.238,0.525c0.144-0.023,5.121-0.849,10.824-4.445c5.691-3.602,9.14-7.773,9.212-7.85l0.411-0.55
		l0.004-0.005h0.003l0.006-0.015l-0.006,0.003c1.96-2.807-2.424-6.2-4.909-2.936l-0.118,0.145l-0.51,0.623
		c-0.002,0-0.649,0.792-1.826,1.938c-1.173,1.147-2.846,2.605-4.771,3.82c-1.92,1.211-3.737,1.962-5.059,2.403
		c-0.477,0.159-1.253-0.41-1.25-0.918c0.007-1.406,0.149-3.387,0.701-5.605c0.544-2.224,1.399-4.284,2.114-5.77
		c0.718-1.482,1.262-2.35,1.263-2.351l0.428-0.683l0.099-0.159c2.299-3.402-2.245-6.562-4.278-3.812V5.039l-0.01,0.01v0.005
		l-0.006,0.003L43.059,5.622L43.059,5.622z"/>
	<path fill="#F08B1D" d="M9.964,18.986c0.07,0.079,3.521,4.251,9.21,7.853C24.88,30.434,29.856,31.257,30,31.286
		c0.816,0.136,1.62-0.085,2.239-0.526l0.002,0.003c0.004-0.004,0.005-0.008,0.008-0.012c0.004-0.003,0.006-0.003,0.009-0.004v-0.004
		c0.612-0.457,1.065-1.16,1.186-1.988c0.019-0.149,0.782-5.186-0.836-11.783c-1.632-6.582-4.489-11.187-4.541-11.281l-0.391-0.565
		l-0.001-0.005c0,0-0.003-0.001-0.003-0.003l-0.006-0.01l-0.001,0.007c-2.036-2.753-6.579,0.416-4.28,3.812l0.1,0.16l0.426,0.681
		c0,0.004,0.546,0.871,1.26,2.352c0.716,1.485,1.575,3.547,2.121,5.769c0.544,2.221,0.692,4.199,0.697,5.607
		c0.004,0.513-0.772,1.078-1.25,0.918c-1.32-0.441-3.138-1.19-5.058-2.405c-1.924-1.212-3.598-2.672-4.775-3.819
		c-1.172-1.142-1.821-1.937-1.821-1.937l-0.511-0.627l-0.119-0.14c-2.488-3.261-6.868,0.128-4.909,2.936l-0.004-0.003l0.004,0.013
		H9.55l0.005,0.007L9.964,18.986L9.964,18.986z"/>
	<path fill="#F08B1D" d="M12.311,54.934c0.096-0.044,5.087-2.071,10.234-6.428c5.148-4.375,7.456-8.905,7.525-9.033
		c0.386-0.743,0.426-1.585,0.198-2.313h0.003c0-0.008-0.004-0.008-0.007-0.014c-0.002-0.007,0-0.007-0.002-0.013h-0.002
		c-0.24-0.728-0.761-1.381-1.505-1.754c-0.132-0.066-4.638-2.354-11.34-2.835c-6.701-0.467-11.917,0.859-12.018,0.878l-0.653,0.201
		l-0.005,0.001H4.734l-0.015,0.004l0.009,0.006c-3.218,1.102-1.643,6.452,2.263,5.29l0.18-0.046l0.775-0.2
		c0.002,0,0.989-0.26,2.604-0.485c1.618-0.229,3.818-0.417,6.082-0.258c2.257,0.161,4.168,0.636,5.491,1.064
		c0.481,0.154,0.774,1.08,0.476,1.487c-0.821,1.13-2.088,2.649-3.826,4.119c-1.734,1.476-3.624,2.633-5.067,3.41
		c-1.44,0.77-2.388,1.15-2.388,1.149l-0.745,0.301l-0.172,0.068c-3.834,1.387-2,6.646,1.247,5.63l-0.005,0.005l0.017-0.005
		l0.007-0.006L12.311,54.934L12.311,54.934z"/>
	<path fill="#6D6F71" d="M121.872,42.839c0.084,13.982-6.57,19.288-17.687,19.288c-11.036,0-17.689-5.306-17.604-19.288V5.61h-5.727
		v38.493c0,12.381,6.653,22.91,23.331,22.91c16.761,0,23.414-10.529,23.414-22.91V5.61h-5.728V42.839L121.872,42.839z"/>
	<path fill="#6D6F71" d="M162.974,62.127c-15.92,0-22.657-13.307-22.657-26.447s6.737-26.448,22.657-26.448
		c8.747,0,16.403,5.295,18.438,14.536h5.73c-1.531-12.611-12.808-19.421-24.168-19.421c-18.95,0-28.385,14.909-28.385,31.333
		s9.435,31.333,28.385,31.333c13.21,0,22.26-8.322,24.638-21.542h-5.751C179.953,54.91,173.163,62.127,162.974,62.127"/>
	<path fill="#6D6F71" d="M225.974,34.164v-0.169c5.476-1.516,8.255-6.485,8.255-12.044c0-10.529-10.36-16.341-19.794-16.341
		c-11.366,0-18.96,7.325-20.216,18.159h11.33c0.648-4.9,3.749-8.304,8.97-8.304c4.381,0,8.34,2.863,8.34,7.834
		c0,6.738-7.412,7.749-12.551,7.328v8.423c5.812,0,13.646-0.169,13.646,8.758c0,5.56-4.211,9.266-9.603,9.266
		c-6.898,0-10.099-5.211-10.358-11.604H192.62c-0.243,13.548,8.682,21.458,21.898,21.458c11.539,0,21.9-6.991,21.9-19.371
		C236.419,40.986,232.46,35.596,225.974,34.164"/>
	<path fill="#FFFFFF" d="M203.992,45.45h-11.371v0.021h11.372C203.993,45.465,203.992,45.457,203.992,45.45"/>
	<path fill="#6D6F71" d="M6.916,93.759c0,3.969,2.133,7.344,7.479,7.344c5.373,0,7.506-3.375,7.506-7.344V81.42h-1.836v11.934
		c0.027,4.482-2.106,6.184-5.67,6.184c-3.537,0-5.67-1.701-5.643-6.184V81.42H6.916V93.759L6.916,93.759z M41.529,87.252
		c-0.486-4.05-4.104-6.237-7.749-6.237c-6.075,0-9.099,4.779-9.099,10.044s3.024,10.044,9.099,10.044
		c4.509,0,7.506-3.023,8.019-7.749h-1.836c-0.351,3.429-2.619,6.184-6.183,6.184c-5.103,0-7.263-4.267-7.263-8.479
		s2.16-8.478,7.263-8.478c2.808,0,5.265,1.701,5.913,4.671H41.529L41.529,87.252z M68.042,87.252
		c-0.486-4.05-4.104-6.237-7.749-6.237c-6.075,0-9.099,4.779-9.099,10.044s3.024,10.044,9.099,10.044
		c4.509,0,7.506-3.023,8.019-7.749h-1.836c-0.351,3.429-2.619,6.184-6.183,6.184c-5.103,0-7.263-4.267-7.263-8.479
		s2.16-8.478,7.263-8.478c2.808,0,5.265,1.701,5.913,4.671H68.042L68.042,87.252z M82.083,86.766h-1.701v7.317
		c0,2.835-1.269,5.589-4.185,5.589c-2.7,0-3.645-1.323-3.726-3.834v-9.072H70.77v9.045c0,3.24,1.377,5.292,4.887,5.292
		c2.079,0,3.915-1.053,4.806-2.916h0.054v2.511h1.566V86.766L82.083,86.766z M85.295,100.697h1.701v-7.425
		c0-2.889,2.106-5.156,5.184-4.995v-1.7c-2.511-0.108-4.401,1.215-5.265,3.455h-0.054v-3.267h-1.566V100.697L85.295,100.697z
		 M102.71,95.298c0.027,2.727-2.268,4.374-4.86,4.374c-1.593,0-3.105-1.053-3.105-2.754c0-2.728,3.591-2.7,6.48-3.213
		c0.459-0.081,1.215-0.217,1.431-0.621h0.054V95.298L102.71,95.298z M95.339,91.032c0.054-2.269,1.62-3.24,3.726-3.24
		c1.998,0,3.645,0.566,3.645,2.861c0,1.539-0.783,1.729-2.187,1.891c-3.672,0.432-7.479,0.566-7.479,4.481
		c0,2.809,2.106,4.077,4.671,4.077c2.673,0,3.888-1.025,5.076-2.835h0.054c0,1.458,0.271,2.43,1.998,2.43
		c0.459,0,0.729-0.026,1.107-0.107v-1.431c-0.135,0.054-0.351,0.107-0.54,0.107c-0.675,0-0.999-0.378-0.999-1.025v-7.398
		c0-3.727-2.673-4.482-5.13-4.482c-3.186,0-5.481,1.404-5.643,4.672H95.339L95.339,91.032z M110.514,82.581h-1.701v4.185h-2.43
		v1.431h2.43v9.531c-0.027,2.376,0.756,3.132,3.024,3.132c0.513,0,0.999-0.054,1.512-0.054v-1.458
		c-0.486,0.054-0.972,0.081-1.458,0.081c-1.215-0.081-1.377-0.729-1.377-1.836v-9.396h2.835v-1.431h-2.835V82.581L110.514,82.581z
		 M115.832,100.697h1.701V86.766h-1.701V100.697L115.832,100.697z M115.832,84.146h1.701V81.42h-1.701V84.146L115.832,84.146z
		 M126.685,86.36c-4.266,0-6.587,3.375-6.587,7.371s2.321,7.371,6.587,7.371c4.267,0,6.588-3.375,6.588-7.371
		S130.951,86.36,126.685,86.36L126.685,86.36z M126.685,87.792c3.268,0,4.888,2.97,4.888,5.939c0,2.971-1.62,5.94-4.888,5.94
		c-3.267,0-4.887-2.97-4.887-5.94C121.798,90.762,123.418,87.792,126.685,87.792L126.685,87.792z M135.784,100.697h1.701V92.57
		c0.054-2.727,1.674-4.778,4.374-4.778c2.754,0,3.536,1.809,3.536,4.212v8.693h1.701v-8.964c0-3.32-1.188-5.373-5.103-5.373
		c-1.972,0-3.834,1.135-4.455,2.809h-0.054v-2.403h-1.701V100.697L135.784,100.697z M174.07,87.252
		c-0.486-4.05-4.104-6.237-7.749-6.237c-6.075,0-9.1,4.779-9.1,10.044s3.024,10.044,9.1,10.044c4.509,0,7.506-3.023,8.019-7.749
		h-1.836c-0.351,3.429-2.619,6.184-6.183,6.184c-5.104,0-7.264-4.267-7.264-8.479s2.16-8.478,7.264-8.478
		c2.808,0,5.265,1.701,5.913,4.671H174.07L174.07,87.252z M188.542,94.19c0.135-3.915-1.647-7.83-6.129-7.83
		c-4.428,0-6.291,3.699-6.291,7.371c0,3.97,1.863,7.371,6.291,7.371c3.51,0,5.346-1.836,6.075-4.995h-1.701
		c-0.54,2.106-1.89,3.564-4.374,3.564c-3.268,0-4.563-2.997-4.59-5.481H188.542L188.542,94.19z M177.823,92.76
		c0.27-2.538,1.809-4.968,4.59-4.968c2.754,0,4.347,2.402,4.428,4.968H177.823L177.823,92.76z M190.81,100.697h1.701V92.57
		c0.055-2.727,1.674-4.778,4.374-4.778c2.754,0,3.537,1.809,3.537,4.212v8.693h1.701v-8.964c0-3.32-1.188-5.373-5.104-5.373
		c-1.971,0-3.834,1.135-4.454,2.809h-0.055v-2.403h-1.701V100.697L190.81,100.697z M208.035,82.581h-1.701v4.185h-2.43v1.431h2.43
		v9.531c-0.027,2.376,0.756,3.132,3.024,3.132c0.513,0,0.999-0.054,1.512-0.054v-1.458c-0.486,0.054-0.973,0.081-1.458,0.081
		c-1.215-0.081-1.377-0.729-1.377-1.836v-9.396h2.835v-1.431h-2.835V82.581L208.035,82.581z M225.045,94.19
		c0.135-3.915-1.647-7.83-6.129-7.83c-4.428,0-6.291,3.699-6.291,7.371c0,3.97,1.863,7.371,6.291,7.371
		c3.51,0,5.346-1.836,6.075-4.995h-1.701c-0.54,2.106-1.89,3.564-4.374,3.564c-3.267,0-4.563-2.997-4.59-5.481H225.045
		L225.045,94.19z M214.326,92.76c0.27-2.538,1.809-4.968,4.59-4.968c2.754,0,4.347,2.402,4.428,4.968H214.326L214.326,92.76z
		 M227.34,100.697h1.701v-7.425c0-2.889,2.106-5.156,5.184-4.995v-1.7c-2.511-0.108-4.4,1.215-5.265,3.455h-0.054v-3.267h-1.566
		V100.697L227.34,100.697z"/>
</g>
</svg>
